<?xml version="1.0" encoding="UTF-8"?>
<!DOCTYPE svg PUBLIC "-//W3C//DTD SVG 1.1//EN" "http://www.w3.org/Graphics/SVG/1.1/DTD/svg11.dtd">
<svg xmlns="http://www.w3.org/2000/svg" version="1.1" width="1420px" height="1420px" style="shape-rendering:geometricPrecision; text-rendering:geometricPrecision; image-rendering:optimizeQuality; fill-rule:evenodd; clip-rule:evenodd" xmlns:xlink="http://www.w3.org/1999/xlink">
<g><path style="opacity:1" fill="#010101" d="M 672.5,-0.5 C 697.167,-0.5 721.833,-0.5 746.5,-0.5C 802.521,2.7822 857.521,12.4489 911.5,28.5C 912.99,30.2798 914.99,30.9465 917.5,30.5C 968.714,45.6794 1017.38,66.6794 1063.5,93.5C 1063.97,94.9063 1064.97,95.573 1066.5,95.5C 1127.18,130.475 1181.51,173.809 1229.5,225.5C 1229.43,227.027 1230.09,228.027 1231.5,228.5C 1234.17,230.5 1236.5,232.833 1238.5,235.5C 1238.43,237.027 1239.09,238.027 1240.5,238.5C 1242.5,239.833 1244.17,241.5 1245.5,243.5C 1245.74,245.404 1246.74,246.738 1248.5,247.5C 1251.86,249.895 1254.53,252.895 1256.5,256.5C 1256.43,258.027 1257.09,259.027 1258.5,259.5C 1261.29,261.751 1263.63,264.418 1265.5,267.5C 1265.43,269.027 1266.09,270.027 1267.5,270.5C 1276.91,281.579 1285.57,293.246 1293.5,305.5C 1293.43,307.027 1294.09,308.027 1295.5,308.5C 1302.91,318.315 1309.58,328.648 1315.5,339.5C 1315.43,341.027 1316.09,342.027 1317.5,342.5C 1318.89,343.899 1319.89,345.566 1320.5,347.5C 1320.43,349.027 1321.09,350.027 1322.5,350.5C 1351.38,398.925 1373.71,450.258 1389.5,504.5C 1389.41,507.152 1390.08,509.485 1391.5,511.5C 1391.41,514.152 1392.08,516.485 1393.5,518.5C 1394.43,519.568 1394.77,520.901 1394.5,522.5C 1394.41,525.152 1395.08,527.485 1396.5,529.5C 1409.04,576.397 1416.71,624.063 1419.5,672.5C 1419.5,697.167 1419.5,721.833 1419.5,746.5C 1416.09,804.979 1405.75,862.312 1388.5,918.5C 1386.74,919.552 1386.08,921.219 1386.5,923.5C 1343,1060.58 1265.33,1173.91 1153.5,1263.5C 1152.5,1263.83 1151.83,1264.5 1151.5,1265.5C 1089.53,1314.84 1020.86,1352.84 945.5,1379.5C 944.508,1379.33 943.842,1379.66 943.5,1380.5C 879.548,1402.62 813.882,1415.62 746.5,1419.5C 721.833,1419.5 697.167,1419.5 672.5,1419.5C 624.063,1416.7 576.396,1409.04 529.5,1396.5C 527.485,1395.08 525.152,1394.41 522.5,1394.5C 521.833,1394.5 521.167,1394.5 520.5,1394.5C 517.916,1392.53 514.916,1391.53 511.5,1391.5C 509.485,1390.08 507.152,1389.41 504.5,1389.5C 444.5,1371.99 388.167,1346.66 335.5,1313.5C 335.027,1312.09 334.027,1311.43 332.5,1311.5C 330.205,1310.53 328.205,1309.19 326.5,1307.5C 326.027,1306.09 325.027,1305.43 323.5,1305.5C 317.976,1302.91 312.976,1299.57 308.5,1295.5C 308.027,1294.09 307.027,1293.43 305.5,1293.5C 293.246,1285.57 281.579,1276.91 270.5,1267.5C 270.027,1266.09 269.027,1265.43 267.5,1265.5C 124.101,1149.46 37.2672,999.792 7,816.5C 3.67831,793.101 1.17831,769.768 -0.5,746.5C -0.5,721.833 -0.5,697.167 -0.5,672.5C 2.52827,621.305 10.8616,570.971 24.5,521.5C 26.2766,518.495 27.2766,515.162 27.5,511.5C 28.9238,509.485 29.5905,507.152 29.5,504.5C 48.2117,440.958 75.545,381.624 111.5,326.5C 112.906,326.027 113.573,325.027 113.5,323.5C 115.673,319.148 118.34,315.148 121.5,311.5C 122.906,311.027 123.573,310.027 123.5,308.5C 125.354,304.779 127.687,301.446 130.5,298.5C 131.906,298.027 132.573,297.027 132.5,295.5C 135.025,291.104 138.025,287.104 141.5,283.5C 142.906,283.027 143.573,282.027 143.5,280.5C 154.109,266.225 165.442,252.558 177.5,239.5C 178.906,239.027 179.573,238.027 179.5,236.5C 181.833,233.5 184.5,230.833 187.5,228.5C 188.906,228.027 189.573,227.027 189.5,225.5C 198.833,215.5 208.5,205.833 218.5,196.5C 222.1,194.57 225.1,191.903 227.5,188.5C 228.833,186.5 230.5,184.833 232.5,183.5C 235.089,182.581 237.089,180.914 238.5,178.5C 245.218,171.448 252.551,165.115 260.5,159.5C 262.749,158.92 264.415,157.587 265.5,155.5C 284.711,139.291 305.044,124.624 326.5,111.5C 328.027,111.573 329.027,110.906 329.5,109.5C 374.489,80.3406 422.489,57.0073 473.5,39.5C 476.716,39.6545 479.383,38.6545 481.5,36.5C 481.833,36.5 482.167,36.5 482.5,36.5C 485.716,36.6545 488.383,35.6545 490.5,33.5C 490.833,33.5 491.167,33.5 491.5,33.5C 495.162,33.2766 498.495,32.2766 501.5,30.5C 505.162,30.2766 508.495,29.2766 511.5,27.5C 515.162,27.2766 518.495,26.2766 521.5,24.5C 543.72,17.9872 566.386,12.9872 589.5,9.5C 593.79,9.80233 597.79,9.13566 601.5,7.5C 625.147,3.74643 648.813,1.07976 672.5,-0.5 Z"/></g>
<g><path style="opacity:1" fill="#565656" d="M 601.5,7.5 C 597.79,9.13566 593.79,9.80233 589.5,9.5C 593.295,8.38333 597.295,7.71667 601.5,7.5 Z"/></g>
<g><path style="opacity:1" fill="#6c6c6c" d="M 521.5,24.5 C 518.495,26.2766 515.162,27.2766 511.5,27.5C 514.505,25.7234 517.838,24.7234 521.5,24.5 Z"/></g>
<g><path style="opacity:1" fill="#545454" d="M 511.5,27.5 C 508.495,29.2766 505.162,30.2766 501.5,30.5C 504.505,28.7234 507.838,27.7234 511.5,27.5 Z"/></g>
<g><path style="opacity:1" fill="#535353" d="M 911.5,28.5 C 913.786,28.595 915.786,29.2616 917.5,30.5C 914.99,30.9465 912.99,30.2798 911.5,28.5 Z"/></g>
<g><path style="opacity:1" fill="#5f5f5f" d="M 501.5,30.5 C 498.495,32.2766 495.162,33.2766 491.5,33.5C 494.505,31.7234 497.838,30.7234 501.5,30.5 Z"/></g>
<g><path style="opacity:1" fill="#545454" d="M 490.5,33.5 C 488.383,35.6545 485.716,36.6545 482.5,36.5C 484.936,35.129 487.603,34.129 490.5,33.5 Z"/></g>
<g><path style="opacity:1" fill="#5c5c5c" d="M 481.5,36.5 C 479.383,38.6545 476.716,39.6545 473.5,39.5C 475.936,38.129 478.603,37.129 481.5,36.5 Z"/></g>
<g><path style="opacity:0.999" fill="#fcfcfc" d="M 655.5,58.5 C 666.407,57.7031 673.907,62.3698 678,72.5C 679.206,76.4496 680.206,80.4496 681,84.5C 688.155,132.916 694.655,181.416 700.5,230C 700.849,250.651 691.183,257.985 671.5,252C 665.546,246.501 662.046,239.668 661,231.5C 653.946,181.844 647.112,132.177 640.5,82.5C 639.463,70.5481 644.463,62.5481 655.5,58.5 Z"/></g>
<g><path style="opacity:0.999" fill="#fcfcfc" d="M 540.5,77.5 C 545.08,77.1134 549.414,77.9468 553.5,80C 557.723,83.5562 561.223,87.7228 564,92.5C 584.551,139.603 604.551,186.936 624,234.5C 628.04,255.459 619.54,264.293 598.5,261C 596.167,259.5 593.833,258 591.5,256.5C 582.174,276.116 566.507,286.116 544.5,286.5C 507.662,281.503 484.829,260.836 476,224.5C 470.656,199.026 477.156,177.193 495.5,159C 509.621,147.636 525.621,143.47 543.5,146.5C 538.333,134.167 533.167,121.833 528,109.5C 521.371,94.1709 525.538,83.5043 540.5,77.5 Z"/></g>
<g><path style="opacity:1" fill="#bfbfbf" d="M 1063.5,93.5 C 1065.03,93.427 1066.03,94.0937 1066.5,95.5C 1064.97,95.573 1063.97,94.9063 1063.5,93.5 Z"/></g>
<g><path style="opacity:1" fill="#797979" d="M 329.5,109.5 C 329.027,110.906 328.027,111.573 326.5,111.5C 326.973,110.094 327.973,109.427 329.5,109.5 Z"/></g>
<g><path style="opacity:0.999" fill="#fcfcfc" d="M 788.5,113.5 C 825.735,109.354 851.569,124.354 866,158.5C 869.306,171.18 869.306,183.847 866,196.5C 865.215,198.286 864.049,199.786 862.5,201C 855.582,202.551 848.582,202.884 841.5,202C 819.539,198.509 797.539,195.342 775.5,192.5C 775.415,207.279 782.749,216.446 797.5,220C 803.5,220.667 809.5,220.667 815.5,220C 825.096,217.524 834.762,215.357 844.5,213.5C 859.67,217.851 863.17,226.851 855,240.5C 844.454,250.185 831.954,255.685 817.5,257C 776.756,260.865 749.589,243.698 736,205.5C 729.129,172.111 738.962,144.944 765.5,124C 772.76,119.366 780.427,115.866 788.5,113.5 Z"/></g>
<g><path style="opacity:1" fill="#080808" d="M 795.5,146.5 C 810.676,143.925 821.843,149.259 829,162.5C 830.108,166.086 830.608,169.753 830.5,173.5C 812.708,171.59 795.042,168.923 777.5,165.5C 781.039,156.693 787.039,150.36 795.5,146.5 Z"/></g>
<g><path style="opacity:0.999" fill="#fcfcfc" d="M 940.5,153.5 C 963.419,152.544 982.586,160.544 998,177.5C 1002.61,183.228 1005.45,189.728 1006.5,197C 1004.15,211.674 995.82,217.007 981.5,213C 980.449,211.615 979.116,210.615 977.5,210C 972.167,203.333 966.167,197.333 959.5,192C 954.694,188.698 950.194,188.865 946,192.5C 945.585,197.021 946.918,201.021 950,204.5C 959.464,213.624 967.797,223.624 975,234.5C 985.635,255.129 981.802,272.629 963.5,287C 945.011,296.582 926.344,296.916 907.5,288C 893.39,281.556 882.89,271.39 876,257.5C 871.89,244.231 876.056,234.731 888.5,229C 893.28,227.97 897.613,228.97 901.5,232C 908.532,238.697 915.198,245.697 921.5,253C 926.048,257.197 931.381,258.53 937.5,257C 941.235,253.116 941.402,248.949 938,244.5C 932.374,237.206 926.374,230.206 920,223.5C 914.645,216.794 910.312,209.46 907,201.5C 904.554,176.073 915.721,160.073 940.5,153.5 Z"/></g>
<g><path style="opacity:1" fill="#565656" d="M 265.5,155.5 C 264.415,157.587 262.749,158.92 260.5,159.5C 261.585,157.413 263.251,156.08 265.5,155.5 Z"/></g>
<g><path style="opacity:0.999" fill="#fdfdfd" d="M 1104.5,176.5 C 1114.96,174.703 1122.79,178.369 1128,187.5C 1130.21,194.581 1129.21,201.248 1125,207.5C 1114.21,220.629 1103.04,233.462 1091.5,246C 1100.06,245.807 1108.06,247.807 1115.5,252C 1128.78,260.277 1137.95,271.777 1143,286.5C 1144.74,301.881 1140.74,315.548 1131,327.5C 1116.63,342.869 1102.63,358.535 1089,374.5C 1084.47,379.506 1079.31,383.673 1073.5,387C 1058.3,391.134 1049.3,385.467 1046.5,370C 1047.13,363.903 1049.3,358.403 1053,353.5C 1068.04,337.729 1082.37,321.396 1096,304.5C 1104.14,289.941 1100.64,279.108 1085.5,272C 1079.08,270.699 1073.08,271.699 1067.5,275C 1062.03,279.467 1056.87,284.3 1052,289.5C 1040.53,302.634 1028.7,315.467 1016.5,328C 1004.14,335.786 993.973,333.619 986,321.5C 984.543,317.259 984.209,312.926 985,308.5C 987.542,302.635 990.875,297.301 995,292.5C 1028.17,256 1061.33,219.5 1094.5,183C 1097.76,180.548 1101.09,178.381 1104.5,176.5 Z"/></g>
<g><path style="opacity:1" fill="#030303" d="M 533.5,180.5 C 547.311,179.322 557.811,184.655 565,196.5C 572.775,209.892 573.442,223.559 567,237.5C 550.342,251.052 535.675,249.052 523,231.5C 514.813,218.243 513.813,204.576 520,190.5C 523.802,186.037 528.302,182.703 533.5,180.5 Z"/></g>
<g><path style="opacity:1" fill="#555555" d="M 238.5,178.5 C 237.089,180.914 235.089,182.581 232.5,183.5C 233.911,181.086 235.911,179.419 238.5,178.5 Z"/></g>
<g><path style="opacity:1" fill="#545454" d="M 227.5,188.5 C 225.1,191.903 222.1,194.57 218.5,196.5C 220.9,193.097 223.9,190.43 227.5,188.5 Z"/></g>
<g><path style="opacity:0.998" fill="#fcfcfc" d="M 391.5,222.5 C 405.359,220.845 417.692,224.345 428.5,233C 448.197,255.358 466.363,278.858 483,303.5C 488.689,317.957 484.189,327.791 469.5,333C 463.493,333.672 458.159,332.005 453.5,328C 440.571,313.074 428.404,297.574 417,281.5C 412.458,275.29 406.958,270.124 400.5,266C 386.578,262.904 377.078,268.071 372,281.5C 371.452,286.764 372.452,291.764 375,296.5C 387.178,314.188 399.844,331.521 413,348.5C 419.308,357.213 419.974,366.213 415,375.5C 406.773,384.562 397.607,385.728 387.5,379C 384.333,375.833 381.167,372.667 378,369.5C 360.333,345.833 342.667,322.167 325,298.5C 313.71,280.386 318.21,268.719 338.5,263.5C 342.228,264.055 345.895,264.555 349.5,265C 350.979,255.875 354.979,248.041 361.5,241.5C 369.979,232.673 379.979,226.34 391.5,222.5 Z"/></g>
<g><path style="opacity:1" fill="#8a8a8a" d="M 189.5,225.5 C 189.573,227.027 188.906,228.027 187.5,228.5C 187.427,226.973 188.094,225.973 189.5,225.5 Z"/></g>
<g><path style="opacity:1" fill="#898989" d="M 1229.5,225.5 C 1230.91,225.973 1231.57,226.973 1231.5,228.5C 1230.09,228.027 1229.43,227.027 1229.5,225.5 Z"/></g>
<g><path style="opacity:1" fill="#757575" d="M 1238.5,235.5 C 1239.91,235.973 1240.57,236.973 1240.5,238.5C 1239.09,238.027 1238.43,237.027 1238.5,235.5 Z"/></g>
<g><path style="opacity:1" fill="#8b8b8b" d="M 179.5,236.5 C 179.573,238.027 178.906,239.027 177.5,239.5C 177.427,237.973 178.094,236.973 179.5,236.5 Z"/></g>
<g><path style="opacity:1" fill="#828282" d="M 1245.5,243.5 C 1247.26,244.262 1248.26,245.596 1248.5,247.5C 1246.74,246.738 1245.74,245.404 1245.5,243.5 Z"/></g>
<g><path style="opacity:1" fill="#757575" d="M 1256.5,256.5 C 1257.91,256.973 1258.57,257.973 1258.5,259.5C 1257.09,259.027 1256.43,258.027 1256.5,256.5 Z"/></g>
<g><path style="opacity:1" fill="#8a8a8a" d="M 1265.5,267.5 C 1266.91,267.973 1267.57,268.973 1267.5,270.5C 1266.09,270.027 1265.43,269.027 1265.5,267.5 Z"/></g>
<g><path style="opacity:1" fill="#818181" d="M 143.5,280.5 C 143.573,282.027 142.906,283.027 141.5,283.5C 141.427,281.973 142.094,280.973 143.5,280.5 Z"/></g>
<g><path style="opacity:1" fill="#808080" d="M 132.5,295.5 C 132.573,297.027 131.906,298.027 130.5,298.5C 130.427,296.973 131.094,295.973 132.5,295.5 Z"/></g>
<g><path style="opacity:1" fill="#be691b" d="M 738.5,334.5 C 739.167,324.5 739.833,314.5 740.5,304.5C 739.167,304.5 737.833,304.5 736.5,304.5C 737.937,303.275 739.604,302.275 741.5,301.5C 741.996,312.71 740.996,323.71 738.5,334.5 Z"/></g>
<g><path style="opacity:1" fill="#7a7a7a" d="M 1293.5,305.5 C 1294.91,305.973 1295.57,306.973 1295.5,308.5C 1294.09,308.027 1293.43,307.027 1293.5,305.5 Z"/></g>
<g><path style="opacity:1" fill="#757575" d="M 123.5,308.5 C 123.573,310.027 122.906,311.027 121.5,311.5C 121.427,309.973 122.094,308.973 123.5,308.5 Z"/></g>
<g><path style="opacity:1" fill="#fb7b02" d="M 736.5,304.5 C 737.833,304.5 739.167,304.5 740.5,304.5C 739.833,314.5 739.167,324.5 738.5,334.5C 738.046,341.159 737.713,347.826 737.5,354.5C 733.62,385.261 732.62,416.261 734.5,447.5C 733.534,460.27 734.867,472.603 738.5,484.5C 740.451,492.323 742.118,500.323 743.5,508.5C 742.965,513.312 743.965,517.645 746.5,521.5C 746.234,525.605 746.734,529.605 748,533.5C 750.641,538.512 752.475,543.845 753.5,549.5C 754.134,551.772 755.468,553.439 757.5,554.5C 775.801,602.45 803.134,644.45 839.5,680.5C 848.543,655.752 859.709,632.085 873,609.5C 877.357,602.777 882.19,596.444 887.5,590.5C 894.068,585.603 900.068,579.936 905.5,573.5C 913.809,565.208 923.476,558.875 934.5,554.5C 938.76,553.305 943.093,552.305 947.5,551.5C 949.384,551.716 951.051,552.383 952.5,553.5C 954.498,551.666 956.832,550.666 959.5,550.5C 959.384,547.09 961.05,545.756 964.5,546.5C 962.604,553.584 960.938,560.751 959.5,568C 958.303,569.52 956.803,570.687 955,571.5C 955.743,578.159 955.576,584.826 954.5,591.5C 954.745,597.084 954.078,602.417 952.5,607.5C 951.171,612.624 950.505,618.124 950.5,624C 951.199,637.168 952.033,650.334 953,663.5C 953.943,666.251 954.776,668.917 955.5,671.5C 955.849,677.84 956.349,684.173 957,690.5C 957.608,692.066 958.442,693.4 959.5,694.5C 962.619,708.529 965.952,722.529 969.5,736.5C 969.41,739.152 970.076,741.485 971.5,743.5C 978.752,767.843 984.752,792.509 989.5,817.5C 991.185,840.955 994.018,864.288 998,887.5C 999.037,914.218 998.537,940.885 996.5,967.5C 994.799,967.034 993.299,967.034 992,967.5C 990.946,972.71 991.78,977.543 994.5,982C 993.627,987.817 992.96,993.65 992.5,999.5C 990.287,1014.12 986.287,1028.12 980.5,1041.5C 977.292,1043.07 975.958,1045.74 976.5,1049.5C 971.728,1048.6 969.395,1050.6 969.5,1055.5C 970.891,1055.11 971.891,1055.94 972.5,1058C 971.5,1058.33 970.5,1058.67 969.5,1059C 970.517,1060.05 970.684,1061.22 970,1062.5C 969.086,1061.35 968.253,1061.51 967.5,1063C 969.182,1067.05 968.515,1067.88 965.5,1065.5C 964.914,1065.71 964.414,1066.04 964,1066.5C 963.694,1068.91 962.861,1071.07 961.5,1073C 961.96,1074.3 962.294,1075.63 962.5,1077C 960.743,1079.21 959.743,1082.38 959.5,1086.5C 933.28,1131.22 897.614,1166.39 852.5,1192C 827.447,1208.19 800.113,1218.35 770.5,1222.5C 743.216,1224.75 715.883,1225.09 688.5,1223.5C 685.833,1223.5 683.167,1223.5 680.5,1223.5C 674.383,1222.99 668.383,1221.99 662.5,1220.5C 653.736,1216.31 644.402,1213.48 634.5,1212C 635.167,1211.67 635.833,1211.33 636.5,1211C 631.481,1210.59 626.481,1210.09 621.5,1209.5C 556.422,1188.73 503.922,1150.73 464,1095.5C 460.302,1090.1 457.136,1084.44 454.5,1078.5C 451.969,1072.09 449.136,1065.76 446,1059.5C 445.051,1057.91 443.885,1056.57 442.5,1055.5C 441.297,1049.49 439.964,1043.49 438.5,1037.5C 437.914,1037.71 437.414,1038.04 437,1038.5C 435.329,1031.49 433.496,1024.49 431.5,1017.5C 430.85,1015.82 429.85,1014.48 428.5,1013.5C 428.5,1012.83 428.5,1012.17 428.5,1011.5C 424.732,985.741 423.065,959.907 423.5,934C 424.092,916.097 425.258,898.263 427,880.5C 429.404,866.963 431.57,853.296 433.5,839.5C 436.33,827.34 440.33,815.673 445.5,804.5C 447.091,801.729 448.925,799.062 451,796.5C 451.333,796.833 451.667,797.167 452,797.5C 452.448,795.776 453.282,795.109 454.5,795.5C 451.728,792.266 451.895,789.266 455,786.5C 454.899,781.962 456.565,778.295 460,775.5C 461.695,769.674 462.862,763.674 463.5,757.5C 463.5,757.167 463.5,756.833 463.5,756.5C 464.458,756.047 465.292,755.381 466,754.5C 466.558,751.066 467.391,747.733 468.5,744.5C 469.552,744.649 470.552,744.483 471.5,744C 470.556,741.281 470.223,738.448 470.5,735.5C 474.156,729.622 475.823,722.955 475.5,715.5C 475.5,714.833 475.5,714.167 475.5,713.5C 476.458,713.047 477.292,712.381 478,711.5C 480.191,701.044 481.024,690.377 480.5,679.5C 480.5,678.833 480.5,678.167 480.5,677.5C 481.166,672.511 481.499,667.344 481.5,662C 481.618,653.287 480.952,644.787 479.5,636.5C 479.5,634.833 479.5,633.167 479.5,631.5C 479.632,610.88 478.299,590.38 475.5,570C 475.836,568.97 476.503,568.47 477.5,568.5C 506.749,588.248 531.582,612.582 552,641.5C 555.705,647.577 558.872,653.91 561.5,660.5C 561.892,666.116 563.559,671.116 566.5,675.5C 570.5,688.484 573.5,701.817 575.5,715.5C 575.743,721.184 576.243,726.851 577,732.5C 577.232,733.737 577.732,734.737 578.5,735.5C 579.473,737.948 579.806,740.615 579.5,743.5C 579.759,754.836 580.093,766.169 580.5,777.5C 583.698,778.036 586.365,777.369 588.5,775.5C 592.528,773.472 595.528,770.472 597.5,766.5C 598.873,766.657 600.207,766.49 601.5,766C 600.446,764.612 600.28,763.112 601,761.5C 601.308,762.308 601.808,762.975 602.5,763.5C 602.833,762 603.167,760.5 603.5,759C 604.325,747.286 605.325,735.619 606.5,724C 604.871,694.868 604.038,665.701 604,636.5C 603.9,630.253 603.067,624.253 601.5,618.5C 601.5,614.833 601.5,611.167 601.5,607.5C 600.833,575.504 600.5,543.504 600.5,511.5C 600.593,505.484 600.926,499.484 601.5,493.5C 602.325,490.628 603.159,487.628 604,484.5C 603.95,472.689 605.117,461.022 607.5,449.5C 629.274,391.227 666.607,345.727 719.5,313C 725.078,309.906 730.744,307.072 736.5,304.5 Z"/></g>
<g><path style="opacity:1" fill="#7d7d7d" d="M 113.5,323.5 C 113.573,325.027 112.906,326.027 111.5,326.5C 111.427,324.973 112.094,323.973 113.5,323.5 Z"/></g>
<g><path style="opacity:1" fill="#818181" d="M 1315.5,339.5 C 1316.91,339.973 1317.57,340.973 1317.5,342.5C 1316.09,342.027 1315.43,341.027 1315.5,339.5 Z"/></g>
<g><path style="opacity:0.999" fill="#fdfdfd" d="M 259.5,347.5 C 267.303,347.377 274.636,349.211 281.5,353C 307.5,369.333 333.5,385.667 359.5,402C 371.543,410.519 373.71,421.019 366,433.5C 360.603,438.895 354.103,440.895 346.5,439.5C 350.18,472.663 335.847,493.496 303.5,502C 273.35,505.847 248.183,496.347 228,473.5C 213.258,454.617 208.925,433.617 215,410.5C 221.291,394.036 232.791,383.37 249.5,378.5C 243.473,364.889 246.807,354.556 259.5,347.5 Z"/></g>
<g><path style="opacity:1" fill="#ababab" d="M 1320.5,347.5 C 1321.91,347.973 1322.57,348.973 1322.5,350.5C 1321.09,350.027 1320.43,349.027 1320.5,347.5 Z"/></g>
<g><path style="opacity:0.999" fill="#fcfcfc" d="M 1173.5,358.5 C 1211.9,358.449 1236.73,376.782 1248,413.5C 1251.82,449.365 1237.65,475.532 1205.5,492C 1162.61,509.595 1130.78,497.762 1110,456.5C 1100.02,425.629 1107.19,399.462 1131.5,378C 1143.93,367.95 1157.93,361.45 1173.5,358.5 Z"/></g>
<g><path style="opacity:1" fill="#030303" d="M 1178.5,399.5 C 1198.59,398.431 1208.75,407.764 1209,427.5C 1204.16,443.34 1193.66,453.506 1177.5,458C 1160.96,461.815 1150.13,455.648 1145,439.5C 1144.18,427.294 1148.68,417.46 1158.5,410C 1161.67,408.248 1164.67,406.248 1167.5,404C 1171.34,402.639 1175.01,401.139 1178.5,399.5 Z"/></g>
<g><path style="opacity:1" fill="#030303" d="M 269.5,404.5 C 289.913,403.118 304.746,411.452 314,429.5C 317.504,445.657 311.337,456.157 295.5,461C 280.215,461.943 267.715,456.443 258,444.5C 248.001,427.01 251.835,413.676 269.5,404.5 Z"/></g>
<g><path style="opacity:1" fill="#281003" d="M 737.5,354.5 C 737.334,358.846 737.501,363.179 738,367.5C 739.267,369.484 738.934,371.484 737,373.5C 736.667,376.5 736.333,379.5 736,382.5C 735.54,408.503 735.707,434.503 736.5,460.5C 735.833,456.167 735.167,451.833 734.5,447.5C 732.62,416.261 733.62,385.261 737.5,354.5 Z"/></g>
<g><path style="opacity:1" fill="#cf701a" d="M 607.5,449.5 C 605.117,461.022 603.95,472.689 604,484.5C 603.159,487.628 602.325,490.628 601.5,493.5C 602.154,482.158 602.988,470.825 604,459.5C 604.701,455.891 605.868,452.558 607.5,449.5 Z"/></g>
<g><path style="opacity:1" fill="#ca6d19" d="M 734.5,447.5 C 735.167,451.833 735.833,456.167 736.5,460.5C 737.167,468.5 737.833,476.5 738.5,484.5C 734.867,472.603 733.534,460.27 734.5,447.5 Z"/></g>
<g><path style="opacity:0.999" fill="#fdfdfd" d="M 137.5,499.5 C 150.714,498.217 158.714,504.05 161.5,517C 161.109,519.953 160.275,522.787 159,525.5C 153.865,534.103 149.532,543.103 146,552.5C 141.505,576.342 150.005,593.842 171.5,605C 189.896,614.003 208.896,615.669 228.5,610C 246.742,601.368 255.742,586.868 255.5,566.5C 255.122,558.975 254.455,551.475 253.5,544C 254.648,533.518 260.482,527.685 271,526.5C 281.531,527.688 288.531,533.355 292,543.5C 298.976,570.67 295.309,596.337 281,620.5C 258.979,650.079 229.479,662.579 192.5,658C 158.548,654.122 132.381,637.955 114,609.5C 99.4868,579.193 100.153,549.193 116,519.5C 121.478,510.849 128.645,504.183 137.5,499.5 Z"/></g>
<g><path style="opacity:1" fill="#656565" d="M 29.5,504.5 C 29.5905,507.152 28.9238,509.485 27.5,511.5C 27.4095,508.848 28.0762,506.515 29.5,504.5 Z"/></g>
<g><path style="opacity:1" fill="#666666" d="M 1389.5,504.5 C 1390.92,506.515 1391.59,508.848 1391.5,511.5C 1390.08,509.485 1389.41,507.152 1389.5,504.5 Z"/></g>
<g><path style="opacity:1" fill="#6c6c6c" d="M 27.5,511.5 C 27.2766,515.162 26.2766,518.495 24.5,521.5C 24.7234,517.838 25.7234,514.505 27.5,511.5 Z"/></g>
<g><path style="opacity:1" fill="#5f5f5f" d="M 1391.5,511.5 C 1392.92,513.515 1393.59,515.848 1393.5,518.5C 1392.08,516.485 1391.41,514.152 1391.5,511.5 Z"/></g>
<g><path style="opacity:1" fill="#c06d1d" d="M 743.5,508.5 C 744.66,512.681 745.66,517.015 746.5,521.5C 743.965,517.645 742.965,513.312 743.5,508.5 Z"/></g>
<g><path style="opacity:0.999" fill="#fcfcfc" d="M 1276.5,516.5 C 1298.93,515.08 1307.09,525.08 1301,546.5C 1299.29,548.759 1297.45,550.926 1295.5,553C 1313.74,565.318 1321.24,582.485 1318,604.5C 1310.48,633.687 1291.98,651.854 1262.5,659C 1233.46,665.984 1208.63,658.817 1188,637.5C 1175.8,620.481 1173.3,602.148 1180.5,582.5C 1167.65,586.13 1154.65,589.297 1141.5,592C 1122.72,595.209 1113.55,587.376 1114,568.5C 1115.3,564.726 1117.47,561.559 1120.5,559C 1125.12,555.901 1130.12,553.568 1135.5,552C 1182.66,540.293 1229.66,528.459 1276.5,516.5 Z"/></g>
<g><path style="opacity:1" fill="#2b1104" d="M 600.5,511.5 C 600.5,543.504 600.833,575.504 601.5,607.5C 600.833,602.319 600.167,596.985 599.5,591.5C 599.167,578.167 598.833,564.833 598.5,551.5C 598.501,537.816 599.167,524.483 600.5,511.5 Z"/></g>
<g><path style="opacity:1" fill="#d47116" d="M 746.5,521.5 C 749.941,532.489 753.607,543.489 757.5,554.5C 755.468,553.439 754.134,551.772 753.5,549.5C 752.475,543.845 750.641,538.512 748,533.5C 746.734,529.605 746.234,525.605 746.5,521.5 Z"/></g>
<g><path style="opacity:1" fill="#5e5e5e" d="M 1394.5,522.5 C 1395.92,524.515 1396.59,526.848 1396.5,529.5C 1395.08,527.485 1394.41,525.152 1394.5,522.5 Z"/></g>
<g><path style="opacity:1" fill="#9f5f20" d="M 965.5,547.5 C 964.082,545.692 962.082,545.025 959.5,545.5C 961.487,544.657 963.654,543.99 966,543.5C 967.544,544.838 967.377,546.171 965.5,547.5 Z"/></g>
<g><path style="opacity:1" fill="#030303" d="M 1243.5,565.5 C 1252.74,564.715 1261.41,566.548 1269.5,571C 1281.47,582.038 1282.64,594.204 1273,607.5C 1257.36,621.094 1240.2,623.594 1221.5,615C 1213.46,607.544 1210.63,598.377 1213,587.5C 1219.71,575.279 1229.88,567.946 1243.5,565.5 Z"/></g>
<g><path style="opacity:1" fill="#e87910" d="M 959.5,545.5 C 962.082,545.025 964.082,545.692 965.5,547.5C 962.58,562.461 958.913,577.128 954.5,591.5C 955.576,584.826 955.743,578.159 955,571.5C 956.803,570.687 958.303,569.52 959.5,568C 960.938,560.751 962.604,553.584 964.5,546.5C 961.05,545.756 959.384,547.09 959.5,550.5C 956.832,550.666 954.498,551.666 952.5,553.5C 951.051,552.383 949.384,551.716 947.5,551.5C 943.093,552.305 938.76,553.305 934.5,554.5C 942.254,550.136 950.587,547.136 959.5,545.5 Z"/></g>
<g><path style="opacity:1" fill="#ca6d18" d="M 477.5,568.5 C 476.503,568.47 475.836,568.97 475.5,570C 478.299,590.38 479.632,610.88 479.5,631.5C 477.511,612.015 475.844,592.348 474.5,572.5C 474.833,570.5 475.167,568.5 475.5,566.5C 476.522,566.855 477.189,567.522 477.5,568.5 Z"/></g>
<g><path style="opacity:1" fill="#c96d19" d="M 905.5,573.5 C 900.068,579.936 894.068,585.603 887.5,590.5C 892.89,584.108 898.89,578.441 905.5,573.5 Z"/></g>
<g><path style="opacity:1" fill="#d47116" d="M 728.5,639.5 C 721.108,626.388 713.941,613.054 707,599.5C 706.241,597.937 705.074,596.937 703.5,596.5C 703.817,593.343 705.484,591.843 708.5,592C 705.921,593.612 705.921,595.112 708.5,596.5C 709.273,598.813 709.94,601.146 710.5,603.5C 711.325,604.386 712.325,604.719 713.5,604.5C 713.433,606.401 713.767,608.234 714.5,610C 720.181,619.373 724.848,629.207 728.5,639.5 Z"/></g>
<g><path style="opacity:1" fill="#dc781a" d="M 698.5,604.5 C 692.382,615.872 687.049,627.539 682.5,639.5C 682.192,637.076 682.526,634.743 683.5,632.5C 687.049,626.616 689.549,620.282 691,613.5C 691.333,613.833 691.667,614.167 692,614.5C 693.222,610.419 695.389,607.086 698.5,604.5 Z"/></g>
<g><path style="opacity:1" fill="#120a00" d="M 703.5,596.5 C 705.074,596.937 706.241,597.937 707,599.5C 713.941,613.054 721.108,626.388 728.5,639.5C 734.026,652.215 740.859,664.215 749,675.5C 776.172,707.678 805.172,738.344 836,767.5C 853.85,786.524 868.35,807.857 879.5,831.5C 881.99,837.813 884.99,843.813 888.5,849.5C 889.302,852.574 890.302,855.574 891.5,858.5C 894.025,865.637 896.691,872.637 899.5,879.5C 902.785,895.582 905.785,911.582 908.5,927.5C 910.218,960.87 909.718,994.203 907,1027.5C 905.453,1039.07 902.953,1050.4 899.5,1061.5C 877.284,1120.22 837.617,1162.72 780.5,1189C 751.923,1200.65 722.256,1205.15 691.5,1202.5C 671.982,1200.73 652.649,1197.23 633.5,1192C 630.259,1190.21 626.926,1188.71 623.5,1187.5C 587.384,1170 557.884,1144.67 535,1111.5C 527.79,1100.08 521.957,1088.08 517.5,1075.5C 515.536,1064.41 513.869,1053.41 512.5,1042.5C 512.5,1041.5 512.5,1040.5 512.5,1039.5C 512.134,1020.12 512.801,1000.79 514.5,981.5C 516.808,967.245 520.142,953.245 524.5,939.5C 529.128,928.902 533.795,918.235 538.5,907.5C 562.187,863.472 590.354,822.472 623,784.5C 628.091,792.828 634.258,800.328 641.5,807C 642.745,807.791 644.078,808.291 645.5,808.5C 649.354,811.856 653.688,812.356 658.5,810C 661.49,806.372 663.323,802.205 664,797.5C 665.341,768.15 666.841,738.816 668.5,709.5C 672.305,688.584 676.305,667.584 680.5,646.5C 681.924,644.485 682.59,642.152 682.5,639.5C 687.049,627.539 692.382,615.872 698.5,604.5C 700.95,602.371 702.617,599.704 703.5,596.5 Z"/></g>
<g><path style="opacity:1" fill="#dc791b" d="M 952.5,607.5 C 952.172,628.901 953.172,650.234 955.5,671.5C 954.776,668.917 953.943,666.251 953,663.5C 952.033,650.334 951.199,637.168 950.5,624C 950.505,618.124 951.171,612.624 952.5,607.5 Z"/></g>
<g><path style="opacity:1" fill="#0c9b43" d="M 880.5,842.5 C 880.804,845.522 881.304,848.522 882,851.5C 884.043,852.579 885.376,854.246 886,856.5C 890.408,868.011 893.908,879.845 896.5,892C 896.836,893.03 897.503,893.53 898.5,893.5C 902.144,905.078 904.144,917.078 904.5,929.5C 906.092,962.194 905.759,994.861 903.5,1027.5C 899.328,1056.52 889.162,1083.19 873,1107.5C 851.088,1139.92 822.588,1164.59 787.5,1181.5C 785.821,1181.71 784.821,1181.05 784.5,1179.5C 802.337,1167.83 816.17,1152.49 826,1133.5C 829.033,1126.34 832.2,1119.34 835.5,1112.5C 836.558,1111.4 837.392,1110.07 838,1108.5C 838.711,1101.84 839.211,1095.18 839.5,1088.5C 842.26,1045.66 838.927,1003.32 829.5,961.5C 828.903,953.057 827.737,944.723 826,936.5C 825.721,932.795 824.221,929.795 821.5,927.5C 821.167,925.667 820.833,923.833 820.5,922C 820.913,918.804 821.08,915.638 821,912.5C 820.667,912.167 820.333,911.833 820,911.5C 819,912.5 818,913.5 817,914.5C 816.768,913.263 816.268,912.263 815.5,911.5C 809,895.484 802.166,879.484 795,863.5C 784.969,842.797 771.802,824.297 755.5,808C 746.308,800.073 735.975,794.239 724.5,790.5C 723.791,789.596 722.791,789.263 721.5,789.5C 722.562,814.156 722.729,838.822 722,863.5C 719.821,876.303 717.321,888.97 714.5,901.5C 711.818,912.029 707.152,921.529 700.5,930C 699.271,930.781 697.938,931.281 696.5,931.5C 685.355,920.863 673.688,910.696 661.5,901C 648.951,892.986 635.951,885.82 622.5,879.5C 620.107,881.762 619.94,884.428 622,887.5C 623.131,903.623 622.298,919.623 619.5,935.5C 610.532,963.234 599.699,990.234 587,1016.5C 570.069,1063.72 574.902,1108.38 601.5,1150.5C 601.771,1154.14 603.437,1156.97 606.5,1159C 605.663,1160.01 605.33,1161.18 605.5,1162.5C 607.527,1162.34 609.527,1162.5 611.5,1163C 613.179,1165.2 615.179,1167.03 617.5,1168.5C 614.373,1168.98 611.54,1169.98 609,1171.5C 608.333,1170.83 607.667,1170.17 607,1169.5C 605.301,1170.41 603.467,1170.74 601.5,1170.5C 572.519,1153.02 549.352,1129.69 532,1100.5C 528.953,1094.14 525.953,1087.81 523,1081.5C 520.094,1072.73 518.261,1063.73 517.5,1054.5C 517.084,1049.51 516.751,1044.51 516.5,1039.5C 516.333,1027.83 516.5,1016.16 517,1004.5C 518.495,993.876 519.828,983.209 521,972.5C 521.333,972.833 521.667,973.167 522,973.5C 522.499,968.845 522.666,964.179 522.5,959.5C 525.973,944.582 531.14,930.249 538,916.5C 549.137,893.552 561.803,871.552 576,850.5C 590.272,830.294 605.272,810.627 621,791.5C 621.718,790.549 622.551,790.383 623.5,791C 629.433,801.435 637.767,809.268 648.5,814.5C 648.611,815.117 648.944,815.617 649.5,816C 654.874,817.392 659.541,816.225 663.5,812.5C 665.167,813.5 666.5,814.833 667.5,816.5C 669.217,815.332 669.884,813.665 669.5,811.5C 670.5,811.5 671.5,811.5 672.5,811.5C 672.5,810.5 672.5,809.5 672.5,808.5C 671.178,808.67 670.011,808.337 669,807.5C 668.798,809.256 668.298,810.922 667.5,812.5C 667.167,811.167 666.833,809.833 666.5,808.5C 667.66,803.86 668.827,799.193 670,794.5C 670.5,780.837 670.667,767.171 670.5,753.5C 671.055,743.509 671.388,733.509 671.5,723.5C 671.5,722.167 671.5,720.833 671.5,719.5C 672.889,714.731 673.556,709.731 673.5,704.5C 673.448,702.097 673.781,699.764 674.5,697.5C 676.156,694.845 677.489,691.845 678.5,688.5C 679.167,689.833 679.833,691.167 680.5,692.5C 680.833,691.667 681.167,690.833 681.5,690C 679.663,679.207 680.496,668.707 684,658.5C 684.994,653.882 685.494,649.215 685.5,644.5C 689.086,630.263 694.919,616.929 703,604.5C 704,603.167 705,603.167 706,604.5C 717.266,627.374 729.266,649.707 742,671.5C 765.936,701.436 791.936,729.436 820,755.5C 830.036,765.868 839.703,776.534 849,787.5C 862.066,804.29 872.566,822.624 880.5,842.5 Z"/></g>
<g><path style="opacity:1" fill="#d97616" d="M 680.5,646.5 C 676.305,667.584 672.305,688.584 668.5,709.5C 668.335,705.818 668.501,702.152 669,698.5C 670.914,690.153 672.58,681.82 674,673.5C 674.599,668.98 674.432,664.48 673.5,660C 673.833,658.833 674.167,657.667 674.5,656.5C 675.298,658.078 675.798,659.744 676,661.5C 677.251,656.184 678.751,651.184 680.5,646.5 Z"/></g>
<g><path style="opacity:1" fill="#c77629" d="M 479.5,636.5 C 480.952,644.787 481.618,653.287 481.5,662C 481.499,667.344 481.166,672.511 480.5,677.5C 480.588,663.82 480.255,650.153 479.5,636.5 Z"/></g>
<g><path style="opacity:1" fill="#c46c1a" d="M 561.5,660.5 C 564.14,665.085 565.806,670.085 566.5,675.5C 563.559,671.116 561.892,666.116 561.5,660.5 Z"/></g>
<g><path style="opacity:1" fill="#168641" d="M 685.5,644.5 C 685.494,649.215 684.994,653.882 684,658.5C 680.496,668.707 679.663,679.207 681.5,690C 681.167,690.833 680.833,691.667 680.5,692.5C 679.833,691.167 679.167,689.833 678.5,688.5C 677.489,691.845 676.156,694.845 674.5,697.5C 677.037,679.477 680.704,661.81 685.5,644.5 Z"/></g>
<g><path style="opacity:1" fill="#c86e1d" d="M 955.5,671.5 C 957.191,678.976 958.524,686.642 959.5,694.5C 958.442,693.4 957.608,692.066 957,690.5C 956.349,684.173 955.849,677.84 955.5,671.5 Z"/></g>
<g><path style="opacity:1" fill="#ca6c16" d="M 480.5,679.5 C 481.024,690.377 480.191,701.044 478,711.5C 477.292,712.381 476.458,713.047 475.5,713.5C 477.372,702.06 479.038,690.727 480.5,679.5 Z"/></g>
<g><path style="opacity:1" fill="#d57012" d="M 601.5,618.5 C 603.067,624.253 603.9,630.253 604,636.5C 604.038,665.701 604.871,694.868 606.5,724C 605.325,735.619 604.325,747.286 603.5,759C 603.167,760.5 602.833,762 602.5,763.5C 601.808,762.975 601.308,762.308 601,761.5C 600.28,763.112 600.446,764.612 601.5,766C 600.207,766.49 598.873,766.657 597.5,766.5C 602.116,752.911 604.45,738.911 604.5,724.5C 602.168,689.204 601.168,653.871 601.5,618.5 Z"/></g>
<g><path style="opacity:1" fill="#0d5b2c" d="M 673.5,704.5 C 673.556,709.731 672.889,714.731 671.5,719.5C 671.444,714.269 672.111,709.269 673.5,704.5 Z"/></g>
<g><path style="opacity:1" fill="#cf6e16" d="M 475.5,715.5 C 475.823,722.955 474.156,729.622 470.5,735.5C 471.565,728.573 473.232,721.906 475.5,715.5 Z"/></g>
<g><path style="opacity:1" fill="#bd681a" d="M 575.5,715.5 C 577.415,721.899 578.415,728.565 578.5,735.5C 577.732,734.737 577.232,733.737 577,732.5C 576.243,726.851 575.743,721.184 575.5,715.5 Z"/></g>
<g><path style="opacity:1" fill="#13612f" d="M 671.5,723.5 C 671.388,733.509 671.055,743.509 670.5,753.5C 670.167,753.5 669.833,753.5 669.5,753.5C 669.667,744.159 670,734.826 670.5,725.5C 670.328,724.508 670.662,723.842 671.5,723.5 Z"/></g>
<g><path style="opacity:1" fill="#954e15" d="M 969.5,736.5 C 970.924,738.515 971.59,740.848 971.5,743.5C 970.076,741.485 969.41,739.152 969.5,736.5 Z"/></g>
<g><path style="opacity:1" fill="#d27218" d="M 470.5,735.5 C 470.223,738.448 470.556,741.281 471.5,744C 470.552,744.483 469.552,744.649 468.5,744.5C 467.391,747.733 466.558,751.066 466,754.5C 465.292,755.381 464.458,756.047 463.5,756.5C 465.664,749.341 467.997,742.341 470.5,735.5 Z"/></g>
<g><path style="opacity:1" fill="#010c00" d="M 670.5,725.5 C 670,734.826 669.667,744.159 669.5,753.5C 668.961,769.181 668.128,784.848 667,800.5C 666.243,802.315 665.41,803.981 664.5,805.5C 666.09,779.209 667.59,752.876 669,726.5C 669.383,725.944 669.883,725.611 670.5,725.5 Z"/></g>
<g><path style="opacity:1" fill="#a55812" d="M 579.5,743.5 C 581.111,754.291 581.778,765.291 581.5,776.5C 583.903,776.552 586.236,776.219 588.5,775.5C 586.365,777.369 583.698,778.036 580.5,777.5C 580.093,766.169 579.759,754.836 579.5,743.5 Z"/></g>
<g><path style="opacity:1" fill="#dd7515" d="M 463.5,757.5 C 462.862,763.674 461.695,769.674 460,775.5C 456.565,778.295 454.899,781.962 455,786.5C 451.895,789.266 451.728,792.266 454.5,795.5C 453.282,795.109 452.448,795.776 452,797.5C 451.667,797.167 451.333,796.833 451,796.5C 448.925,799.062 447.091,801.729 445.5,804.5C 451.264,788.656 457.264,772.989 463.5,757.5 Z"/></g>
<g><path style="opacity:1" fill="#e27714" d="M 668.5,709.5 C 666.841,738.816 665.341,768.15 664,797.5C 663.323,802.205 661.49,806.372 658.5,810C 653.688,812.356 649.354,811.856 645.5,808.5C 647.881,807.58 650.214,807.58 652.5,808.5C 654.134,808.032 655.3,807.032 656,805.5C 656.689,806.357 657.522,807.023 658.5,807.5C 659.997,803.838 661.497,800.172 663,796.5C 664.259,777.179 664.592,757.846 664,738.5C 662.834,733.006 661.667,727.506 660.5,722C 660.613,720.72 661.28,719.887 662.5,719.5C 664.191,721.424 664.525,723.424 663.5,725.5C 663.824,727.569 664.658,727.902 666,726.5C 666.333,721.5 666.667,716.5 667,711.5C 667.278,710.584 667.778,709.918 668.5,709.5 Z"/></g>
<g><path style="opacity:0.995" fill="#f5f5f5" d="M 124.5,809.5 C 131.257,809.123 137.924,809.623 144.5,811C 155.721,818.312 158.554,828.145 153,840.5C 148.035,846.77 141.535,850.103 133.5,850.5C 131.588,839.537 129.921,828.537 128.5,817.5C 116.596,820.21 112.762,827.21 117,838.5C 119.285,841.892 122.452,843.559 126.5,843.5C 126.5,846.167 126.5,848.833 126.5,851.5C 114.369,849.356 108.369,842.022 108.5,829.5C 109.737,819.593 115.07,812.926 124.5,809.5 Z"/></g>
<g><path style="opacity:0.993" fill="#f4f4f4" d="M 1255.5,808.5 C 1269.46,810.829 1283.46,812.996 1297.5,815C 1314.75,819.341 1319.92,829.841 1313,846.5C 1309.84,852.165 1305,854.832 1298.5,854.5C 1298.52,852.073 1299.02,849.74 1300,847.5C 1306.45,845.768 1309.62,841.434 1309.5,834.5C 1309.61,829.963 1307.61,826.797 1303.5,825C 1300.19,823.804 1296.85,823.137 1293.5,823C 1300.46,835.791 1297.12,845.124 1283.5,851C 1273.55,853.076 1264.55,851.076 1256.5,845C 1251.77,838.962 1250.27,832.129 1252,824.5C 1253.79,821.705 1255.96,819.205 1258.5,817C 1254.42,815.468 1253.42,812.634 1255.5,808.5 Z"/></g>
<g><path style="opacity:1" fill="#158e43" d="M 669.5,753.5 C 669.833,753.5 670.167,753.5 670.5,753.5C 670.667,767.171 670.5,780.837 670,794.5C 668.827,799.193 667.66,803.86 666.5,808.5C 666.833,809.833 667.167,811.167 667.5,812.5C 668.298,810.922 668.798,809.256 669,807.5C 670.011,808.337 671.178,808.67 672.5,808.5C 672.5,809.5 672.5,810.5 672.5,811.5C 671.5,811.5 670.5,811.5 669.5,811.5C 669.884,813.665 669.217,815.332 667.5,816.5C 666.5,814.833 665.167,813.5 663.5,812.5C 659.541,816.225 654.874,817.392 649.5,816C 648.944,815.617 648.611,815.117 648.5,814.5C 653.121,815.007 657.454,814.174 661.5,812C 662.914,810.007 663.914,807.84 664.5,805.5C 665.41,803.981 666.243,802.315 667,800.5C 668.128,784.848 668.961,769.181 669.5,753.5 Z"/></g>
<g><path style="opacity:1" fill="#0b0b0b" d="M 134.5,816.5 C 146.411,817.674 150.911,824.007 148,835.5C 145.862,838.469 143.029,840.469 139.5,841.5C 137.371,833.271 135.705,824.938 134.5,816.5 Z"/></g>
<g><path style="opacity:1" fill="#050505" d="M 1266.5,818.5 C 1275.02,817.728 1282.52,820.062 1289,825.5C 1291.81,831.902 1290.65,837.402 1285.5,842C 1275.51,845.275 1266.68,843.441 1259,836.5C 1255.72,828.07 1258.22,822.07 1266.5,818.5 Z"/></g>
<g><path style="opacity:1" fill="#cc7019" d="M 879.5,831.5 C 880.5,831.5 881.5,831.5 882.5,831.5C 883.998,837.666 885.998,843.666 888.5,849.5C 884.99,843.813 881.99,837.813 879.5,831.5 Z"/></g>
<g><path style="opacity:1" fill="#1a8643" d="M 724.5,790.5 C 723.351,790.791 722.684,791.624 722.5,793C 724.993,818.473 725.16,843.973 723,869.5C 721.478,880.653 718.645,891.319 714.5,901.5C 717.321,888.97 719.821,876.303 722,863.5C 722.729,838.822 722.562,814.156 721.5,789.5C 722.791,789.263 723.791,789.596 724.5,790.5 Z"/></g>
<g><path style="opacity:0.995" fill="#f2f2f2" d="M 1249.5,848.5 C 1252.31,848.969 1254.64,850.303 1256.5,852.5C 1252.17,860.51 1254.5,865.677 1263.5,868C 1271.45,869.873 1279.45,871.54 1287.5,873C 1290.83,879.266 1288.83,881.599 1281.5,880C 1269.45,877.589 1257.45,874.922 1245.5,872C 1244.58,869.959 1244.24,867.792 1244.5,865.5C 1246.53,865.662 1248.53,865.495 1250.5,865C 1245.58,859.774 1245.24,854.274 1249.5,848.5 Z"/></g>
<g><path style="opacity:1" fill="#d17017" d="M 989.5,817.5 C 1000.25,866.914 1003.08,916.914 998,967.5C 997.117,978.466 995.284,989.133 992.5,999.5C 992.96,993.65 993.627,987.817 994.5,982C 991.78,977.543 990.946,972.71 992,967.5C 993.299,967.034 994.799,967.034 996.5,967.5C 998.537,940.885 999.037,914.218 998,887.5C 994.018,864.288 991.185,840.955 989.5,817.5 Z"/></g>
<g><path style="opacity:1" fill="#ececec" d="M 173.5,850.5 C 174.5,850.5 175.5,850.5 176.5,850.5C 176.833,853.167 177.167,855.833 177.5,858.5C 174.455,858.508 171.455,858.841 168.5,859.5C 167.637,857.105 167.637,854.771 168.5,852.5C 170.336,851.972 172.003,851.306 173.5,850.5 Z"/></g>
<g><path style="opacity:0.991" fill="#efefef" d="M 154.5,854.5 C 156.167,854.5 157.833,854.5 159.5,854.5C 160.45,857.068 160.45,859.568 159.5,862C 144.895,865.288 130.228,868.121 115.5,870.5C 115.108,867.854 115.108,865.354 115.5,863C 128.666,860.336 141.666,857.502 154.5,854.5 Z"/></g>
<g><path style="opacity:1" fill="#177f3e" d="M 880.5,842.5 C 884.849,849.685 888.349,857.352 891,865.5C 894.427,874.536 896.927,883.869 898.5,893.5C 897.503,893.53 896.836,893.03 896.5,892C 893.908,879.845 890.408,868.011 886,856.5C 885.376,854.246 884.043,852.579 882,851.5C 881.304,848.522 880.804,845.522 880.5,842.5 Z"/></g>
<g><path style="opacity:1" fill="#cf721b" d="M 891.5,858.5 C 892.496,858.414 893.329,858.748 894,859.5C 896.405,866.035 898.239,872.702 899.5,879.5C 896.691,872.637 894.025,865.637 891.5,858.5 Z"/></g>
<g><path style="opacity:0.991" fill="#f2f2f2" d="M 158.5,870.5 C 163.068,870.083 164.568,872.083 163,876.5C 161.745,877.211 160.579,878.044 159.5,879C 169.216,884.629 172.05,892.795 168,903.5C 166.457,905.378 164.624,906.878 162.5,908C 151.236,911.482 139.903,914.649 128.5,917.5C 127.55,914.932 127.55,912.432 128.5,910C 138.484,907.003 148.484,904.003 158.5,901C 164.226,894.398 163.559,888.398 156.5,883C 154.5,882.833 152.5,882.667 150.5,882.5C 140.508,884.827 130.508,887.161 120.5,889.5C 120.414,887.323 119.747,885.323 118.5,883.5C 118.709,882.914 119.043,882.414 119.5,882C 132.754,878.608 145.754,874.775 158.5,870.5 Z"/></g>
<g><path style="opacity:1" fill="#0d140d" d="M 724.5,790.5 C 735.975,794.239 746.308,800.073 755.5,808C 771.802,824.297 784.969,842.797 795,863.5C 802.166,879.484 809,895.484 815.5,911.5C 819.877,928.352 824.543,945.019 829.5,961.5C 838.927,1003.32 842.26,1045.66 839.5,1088.5C 838.089,1096.36 836.756,1104.36 835.5,1112.5C 832.2,1119.34 829.033,1126.34 826,1133.5C 816.17,1152.49 802.337,1167.83 784.5,1179.5C 775.369,1185.56 765.369,1189.73 754.5,1192C 738.93,1194.67 723.263,1196.51 707.5,1197.5C 694.265,1198.19 681.265,1196.86 668.5,1193.5C 654.261,1189.77 640.928,1183.93 628.5,1176C 619.002,1167.94 610.002,1159.44 601.5,1150.5C 574.902,1108.38 570.069,1063.72 587,1016.5C 599.699,990.234 610.532,963.234 619.5,935.5C 624.762,917.188 625.762,898.521 622.5,879.5C 635.951,885.82 648.951,892.986 661.5,901C 673.688,910.696 685.355,920.863 696.5,931.5C 697.938,931.281 699.271,930.781 700.5,930C 707.152,921.529 711.818,912.029 714.5,901.5C 718.645,891.319 721.478,880.653 723,869.5C 725.16,843.973 724.993,818.473 722.5,793C 722.684,791.624 723.351,790.791 724.5,790.5 Z"/></g>
<g><path style="opacity:1" fill="#fefefe" d="M 726.5,794.5 C 745.008,801.83 759.842,813.83 771,830.5C 795.839,868.657 813.505,909.99 824,954.5C 835.923,1000.83 839.59,1047.83 835,1095.5C 827.371,1136.61 804.871,1166.44 767.5,1185C 748.292,1190.86 728.625,1193.86 708.5,1194C 664.217,1195.94 628.717,1179.44 602,1144.5C 583.87,1116.09 577.204,1085.09 582,1051.5C 582.735,1041.89 584.735,1032.56 588,1023.5C 600.105,997.29 611.105,970.623 621,943.5C 623.383,934.583 625.383,925.583 627,916.5C 627.392,906.07 627.559,895.737 627.5,885.5C 652.779,897.29 674.779,913.457 693.5,934C 697.12,934.841 700.454,934.174 703.5,932C 706.388,928.778 708.888,925.278 711,921.5C 723.636,892.908 729.47,862.908 728.5,831.5C 728.26,819.138 727.593,806.805 726.5,794.5 Z"/></g>
<g><path style="opacity:0.989" fill="#f5f5f5" d="M 1241.5,880.5 C 1254.84,883.89 1268.18,887.39 1281.5,891C 1283.18,891.347 1284.18,892.347 1284.5,894C 1283.85,895.44 1283.52,896.94 1283.5,898.5C 1281.42,898.302 1279.42,898.135 1277.5,898C 1281.28,904.628 1281.45,911.461 1278,918.5C 1273.9,923.312 1268.73,925.145 1262.5,924C 1251.72,921.627 1241.39,918.294 1231.5,914C 1232.23,912.234 1232.57,910.401 1232.5,908.5C 1243.52,911.006 1254.52,913.672 1265.5,916.5C 1273.43,914.658 1276.26,909.658 1274,901.5C 1273.22,899.714 1272.05,898.214 1270.5,897C 1260.6,893.525 1250.6,890.358 1240.5,887.5C 1240.17,887 1239.83,886.5 1239.5,886C 1240.32,884.2 1240.99,882.366 1241.5,880.5 Z"/></g>
<g><path style="opacity:1" fill="#17783d" d="M 622.5,879.5 C 625.762,898.521 624.762,917.188 619.5,935.5C 622.298,919.623 623.131,903.623 622,887.5C 619.94,884.428 620.107,881.762 622.5,879.5 Z"/></g>
<g><path style="opacity:1" fill="#168c45" d="M 815.5,911.5 C 816.268,912.263 816.768,913.263 817,914.5C 818,913.5 819,912.5 820,911.5C 820.333,911.833 820.667,912.167 821,912.5C 821.08,915.638 820.913,918.804 820.5,922C 820.833,923.833 821.167,925.667 821.5,927.5C 824.221,929.795 825.721,932.795 826,936.5C 827.737,944.723 828.903,953.057 829.5,961.5C 824.543,945.019 819.877,928.352 815.5,911.5 Z"/></g>
<g><path style="opacity:1" fill="#d97515" d="M 538.5,907.5 C 533.795,918.235 529.128,928.902 524.5,939.5C 524.192,937.076 524.526,934.743 525.5,932.5C 529.31,924.308 532.643,915.975 535.5,907.5C 536.5,907.5 537.5,907.5 538.5,907.5 Z"/></g>
<g><path style="opacity:1" fill="#535353" d="M 1388.5,918.5 C 1388.6,920.553 1387.93,922.22 1386.5,923.5C 1386.08,921.219 1386.74,919.552 1388.5,918.5 Z"/></g>
<g><path style="opacity:0.993" fill="#f5f5f5" d="M 1231.5,926.5 C 1244.65,924.501 1255.48,928.501 1264,938.5C 1267.21,945.124 1267.21,951.79 1264,958.5C 1261.77,961.364 1258.94,963.364 1255.5,964.5C 1259.93,965.958 1260.6,968.458 1257.5,972C 1254.43,971.985 1251.43,971.318 1248.5,970C 1232.35,963.258 1216.02,957.091 1199.5,951.5C 1199.38,948.412 1200.38,945.745 1202.5,943.5C 1208.83,946.167 1215.17,948.833 1221.5,951.5C 1222.41,950.21 1222.24,948.877 1221,947.5C 1219.73,938.035 1223.23,931.035 1231.5,926.5 Z"/></g>
<g><path style="opacity:0.992" fill="#f3f3f3" d="M 184.5,932.5 C 191.854,931.783 198.02,934.117 203,939.5C 209.595,947.539 211.595,956.539 209,966.5C 207.363,970.637 204.53,973.637 200.5,975.5C 198.806,973.953 197.473,972.12 196.5,970C 204.825,960.21 204.158,950.876 194.5,942C 190.286,939.731 186.453,940.231 183,943.5C 182.678,953.08 183.512,962.58 185.5,972C 183.875,986.621 175.875,992.288 161.5,989C 149.635,981.125 144.469,969.959 146,955.5C 148.224,949.943 151.891,945.61 157,942.5C 158.87,944.405 160.37,946.572 161.5,949C 153.055,955.126 151.222,962.959 156,972.5C 159.566,981.876 165.733,984.376 174.5,980C 176.014,977.413 176.68,974.58 176.5,971.5C 175.312,962.143 174.479,952.81 174,943.5C 176.357,938.645 179.857,934.979 184.5,932.5 Z"/></g>
<g><path style="opacity:1" fill="#070707" d="M 1234.5,933.5 C 1244.63,933.034 1252.8,936.701 1259,944.5C 1261.24,956.925 1256.08,962.091 1243.5,960C 1232.42,957.938 1226.92,951.438 1227,940.5C 1228.74,937.254 1231.24,934.921 1234.5,933.5 Z"/></g>
<g><path style="opacity:1" fill="#bf691b" d="M 423.5,905.5 C 422.754,924.824 422.421,944.157 422.5,963.5C 421.834,956.341 421.5,949.008 421.5,941.5C 421.378,929.3 422.045,917.3 423.5,905.5 Z"/></g>
<g><path style="opacity:1" fill="#dd7613" d="M 433.5,839.5 C 431.57,853.296 429.404,866.963 427,880.5C 425.258,898.263 424.092,916.097 423.5,934C 423.065,959.907 424.732,985.741 428.5,1011.5C 424.547,995.877 422.547,979.877 422.5,963.5C 422.421,944.157 422.754,924.824 423.5,905.5C 424.505,891.456 426.005,877.456 428,863.5C 428.921,855.159 430.754,847.159 433.5,839.5 Z"/></g>
<g><path style="opacity:0.995" fill="#f3f3f3" d="M 1215.5,968.5 C 1219.51,968.334 1223.51,968.501 1227.5,969C 1230.6,969.855 1233.27,971.355 1235.5,973.5C 1230.7,982.939 1226.03,992.439 1221.5,1002C 1229.72,1006.62 1236.22,1004.78 1241,996.5C 1242.43,991.243 1241.26,986.743 1237.5,983C 1239.01,980.667 1240.67,978.5 1242.5,976.5C 1251.1,988.043 1250.1,998.876 1239.5,1009C 1229.81,1014.08 1220.48,1013.42 1211.5,1007C 1202.28,1000.33 1199.45,991.494 1203,980.5C 1205.77,974.895 1209.94,970.895 1215.5,968.5 Z"/></g>
<g><path style="opacity:1" fill="#188440" d="M 522.5,959.5 C 522.666,964.179 522.499,968.845 522,973.5C 521.667,973.167 521.333,972.833 521,972.5C 519.828,983.209 518.495,993.876 517,1004.5C 516.5,1016.16 516.333,1027.83 516.5,1039.5C 516.167,1039.5 515.833,1039.5 515.5,1039.5C 513.772,1012.32 516.105,985.649 522.5,959.5 Z"/></g>
<g><path style="opacity:1" fill="#0b0b0b" d="M 1216.5,975.5 C 1220.06,975.151 1223.4,975.817 1226.5,977.5C 1222.41,984.676 1218.58,992.009 1215,999.5C 1208.93,995.4 1206.93,989.734 1209,982.5C 1210.74,979.254 1213.24,976.921 1216.5,975.5 Z"/></g>
<g><path style="opacity:0.988" fill="#f3f3f3" d="M 191.5,989.5 C 205.975,988.806 214.309,995.64 216.5,1010C 216.281,1015.27 214.114,1019.44 210,1022.5C 207.646,1021.64 206.146,1019.98 205.5,1017.5C 211.152,1010.93 210.819,1004.77 204.5,999C 193.315,995.997 184.148,999.163 177,1008.5C 175.199,1021.53 180.699,1026.87 193.5,1024.5C 193.665,1026.83 194.331,1028.99 195.5,1031C 179.663,1034.35 170.997,1027.85 169.5,1011.5C 169.766,1004.81 172.766,999.641 178.5,996C 182.647,993.26 186.98,991.093 191.5,989.5 Z"/></g>
<g><path style="opacity:1" fill="#186f39" d="M 904.5,929.5 C 906.007,944.638 906.673,959.971 906.5,975.5C 906.943,993.073 905.943,1010.41 903.5,1027.5C 905.759,994.861 906.092,962.194 904.5,929.5 Z"/></g>
<g><path style="opacity:1" fill="#bd6716" d="M 514.5,981.5 C 512.801,1000.79 512.134,1020.12 512.5,1039.5C 511.17,1032.87 510.503,1025.87 510.5,1018.5C 510.667,1011.5 510.833,1004.5 511,997.5C 512.203,992.124 513.37,986.791 514.5,981.5 Z"/></g>
<g><path style="opacity:0.994" fill="#f5f5f5" d="M 1190.5,1009.5 C 1193.52,1009.34 1196.52,1009.5 1199.5,1010C 1209.99,1015.41 1220.33,1021.08 1230.5,1027C 1229.29,1029.25 1227.96,1031.42 1226.5,1033.5C 1216.63,1028.06 1206.63,1022.9 1196.5,1018C 1189.86,1018.13 1186.2,1021.63 1185.5,1028.5C 1185.76,1031.03 1186.6,1033.36 1188,1035.5C 1196.58,1041.21 1205.42,1046.54 1214.5,1051.5C 1215.44,1054.32 1214.6,1056.66 1212,1058.5C 1198.74,1051.79 1185.91,1044.46 1173.5,1036.5C 1174.51,1031.68 1176.85,1030.68 1180.5,1033.5C 1180.83,1033.17 1181.17,1032.83 1181.5,1032.5C 1178.66,1022.51 1181.66,1014.84 1190.5,1009.5 Z"/></g>
<g><path style="opacity:0.992" fill="#f4f4f4" d="M 237.5,1010.5 C 239.749,1012.33 240.915,1014.66 241,1017.5C 235.167,1021.33 229.333,1025.17 223.5,1029C 235.676,1032.53 240.176,1040.36 237,1052.5C 235.403,1055.22 233.237,1057.39 230.5,1059C 221.99,1064.18 213.49,1069.35 205,1074.5C 203.266,1072.71 201.766,1070.71 200.5,1068.5C 208.701,1063.14 217.034,1057.97 225.5,1053C 232.275,1046.72 231.942,1040.72 224.5,1035C 220.833,1033 217.167,1033 213.5,1035C 205.734,1039.97 197.901,1044.8 190,1049.5C 187.446,1048.57 185.946,1046.74 185.5,1044C 202.721,1032.6 220.054,1021.44 237.5,1010.5 Z"/></g>
<g><path style="opacity:1" fill="#c76a14" d="M 908.5,927.5 C 909.825,931.445 910.492,935.778 910.5,940.5C 912.1,973.261 911.267,1005.93 908,1038.5C 905.72,1043.95 904.22,1049.62 903.5,1055.5C 902.642,1057.9 901.309,1059.9 899.5,1061.5C 902.953,1050.4 905.453,1039.07 907,1027.5C 909.718,994.203 910.218,960.87 908.5,927.5 Z"/></g>
<g><path style="opacity:1" fill="#df7818" d="M 428.5,1013.5 C 429.85,1014.48 430.85,1015.82 431.5,1017.5C 433.496,1024.49 435.329,1031.49 437,1038.5C 437.414,1038.04 437.914,1037.71 438.5,1037.5C 439.964,1043.49 441.297,1049.49 442.5,1055.5C 436.464,1042.06 431.797,1028.06 428.5,1013.5 Z"/></g>
<g><path style="opacity:0.993" fill="#ebebeb" d="M 1149.5,1039.5 C 1152.49,1040.3 1155.16,1041.8 1157.5,1044C 1156.02,1046.31 1154.36,1048.48 1152.5,1050.5C 1150.21,1048.88 1148.21,1047.04 1146.5,1045C 1147.63,1043.24 1148.63,1041.4 1149.5,1039.5 Z"/></g>
<g><path style="opacity:0.997" fill="#f4f4f4" d="M 1167.5,1044.5 C 1180.78,1051.93 1193.45,1060.43 1205.5,1070C 1204.26,1071.15 1203.26,1072.49 1202.5,1074C 1200.54,1074.62 1198.87,1074.12 1197.5,1072.5C 1198.15,1078.04 1196.98,1083.37 1194,1088.5C 1187.25,1095.47 1179.75,1096.31 1171.5,1091C 1163.32,1085.41 1155.32,1079.58 1147.5,1073.5C 1149.19,1071.64 1150.69,1069.64 1152,1067.5C 1160.75,1073.79 1169.58,1079.96 1178.5,1086C 1186.62,1087.54 1190.95,1084.21 1191.5,1076C 1191.51,1073.7 1191.01,1071.53 1190,1069.5C 1182.03,1062.68 1173.69,1056.35 1165,1050.5C 1165.45,1048.48 1166.28,1046.48 1167.5,1044.5 Z"/></g>
<g><path style="opacity:1" fill="#073414" d="M 515.5,1039.5 C 515.833,1039.5 516.167,1039.5 516.5,1039.5C 516.751,1044.51 517.084,1049.51 517.5,1054.5C 515.969,1049.75 515.302,1044.75 515.5,1039.5 Z"/></g>
<g><path style="opacity:0.971" fill="#f3f3f3" d="M 263.5,1052.5 C 271.337,1055.57 271.337,1058.91 263.5,1062.5C 261.308,1061.14 259.641,1059.31 258.5,1057C 260.24,1055.48 261.906,1053.98 263.5,1052.5 Z"/></g>
<g><path style="opacity:0.984" fill="#ececec" d="M 1140.5,1052.5 C 1143.52,1053.34 1146.18,1054.84 1148.5,1057C 1146.95,1059.26 1145.29,1061.42 1143.5,1063.5C 1141.17,1061.67 1138.83,1059.83 1136.5,1058C 1137.97,1056.23 1139.3,1054.39 1140.5,1052.5 Z"/></g>
<g><path style="opacity:1" fill="#f4f4f4" d="M 246.5,1057.5 C 248.632,1058.8 250.298,1060.64 251.5,1063C 242.607,1070.04 233.773,1077.2 225,1084.5C 223.105,1090.9 225.272,1095.73 231.5,1099C 233.5,1099.67 235.5,1099.67 237.5,1099C 247.161,1093.83 256.161,1087.67 264.5,1080.5C 266.04,1082.39 267.707,1084.22 269.5,1086C 257.642,1095.36 245.642,1104.53 233.5,1113.5C 228.499,1110.43 228.499,1107.59 233.5,1105C 221.01,1102.52 215.51,1095.02 217,1082.5C 219.128,1079.37 221.628,1076.54 224.5,1074C 232.017,1068.64 239.35,1063.14 246.5,1057.5 Z"/></g>
<g><path style="opacity:1" fill="#e47710" d="M 980.5,1041.5 C 974.832,1057.2 967.832,1072.2 959.5,1086.5C 959.743,1082.38 960.743,1079.21 962.5,1077C 962.294,1075.63 961.96,1074.3 961.5,1073C 962.861,1071.07 963.694,1068.91 964,1066.5C 964.414,1066.04 964.914,1065.71 965.5,1065.5C 968.515,1067.88 969.182,1067.05 967.5,1063C 968.253,1061.51 969.086,1061.35 970,1062.5C 970.684,1061.22 970.517,1060.05 969.5,1059C 970.5,1058.67 971.5,1058.33 972.5,1058C 971.891,1055.94 970.891,1055.11 969.5,1055.5C 969.395,1050.6 971.728,1048.6 976.5,1049.5C 975.958,1045.74 977.292,1043.07 980.5,1041.5 Z"/></g>
<g><path style="opacity:1" fill="#db7312" d="M 512.5,1042.5 C 513.869,1053.41 515.536,1064.41 517.5,1075.5C 516.542,1075.05 515.708,1074.38 515,1073.5C 514.884,1070.07 513.717,1067.07 511.5,1064.5C 512.465,1057.22 512.799,1049.89 512.5,1042.5 Z"/></g>
<g><path style="opacity:0.993" fill="#ebebeb" d="M 273.5,1064.5 C 275.916,1065.92 277.916,1067.92 279.5,1070.5C 277.489,1072.34 275.322,1074.01 273,1075.5C 271.132,1073.97 269.632,1072.13 268.5,1070C 270.137,1068.17 271.803,1066.34 273.5,1064.5 Z"/></g>
<g><path style="opacity:1" fill="#cb7219" d="M 442.5,1055.5 C 443.885,1056.57 445.051,1057.91 446,1059.5C 449.136,1065.76 451.969,1072.09 454.5,1078.5C 449.739,1071.31 445.739,1063.65 442.5,1055.5 Z"/></g>
<g><path style="opacity:0.997" fill="#f4f4f4" d="M 287.5,1081.5 C 290.532,1083 292.032,1085.33 292,1088.5C 276.667,1101.83 261.333,1115.17 246,1128.5C 243.319,1126.79 241.985,1124.46 242,1121.5C 257.36,1108.3 272.527,1094.97 287.5,1081.5 Z"/></g>
<g><path style="opacity:0.994" fill="#f5f5f5" d="M 1111.5,1089.5 C 1125.48,1101.14 1139.48,1112.81 1153.5,1124.5C 1160.79,1117.25 1167.63,1109.58 1174,1101.5C 1175.69,1103.02 1177.19,1104.68 1178.5,1106.5C 1171.2,1116.96 1163.03,1126.63 1154,1135.5C 1138.09,1122.46 1122.26,1109.29 1106.5,1096C 1108,1093.67 1109.67,1091.51 1111.5,1089.5 Z"/></g>
<g><path style="opacity:1" fill="#17713c" d="M 839.5,1088.5 C 839.211,1095.18 838.711,1101.84 838,1108.5C 837.392,1110.07 836.558,1111.4 835.5,1112.5C 836.756,1104.36 838.089,1096.36 839.5,1088.5 Z"/></g>
<g><path style="opacity:0.996" fill="#f4f4f4" d="M 280.5,1112.5 C 301.537,1113.02 309.37,1123.35 304,1143.5C 302.022,1146.65 299.522,1149.31 296.5,1151.5C 288.875,1143.37 281.042,1135.37 273,1127.5C 265.164,1136.31 265.997,1144.14 275.5,1151C 279.213,1151.41 282.879,1151.41 286.5,1151C 288.414,1152.41 289.747,1154.25 290.5,1156.5C 281.05,1161.41 272.883,1159.74 266,1151.5C 257.236,1138.68 259.069,1127.51 271.5,1118C 274.564,1116.14 277.564,1114.31 280.5,1112.5 Z"/></g>
<g><path style="opacity:1" fill="#0e0e0e" d="M 283.5,1119.5 C 295.191,1119.35 300.357,1125.02 299,1136.5C 298.028,1138.3 296.861,1139.97 295.5,1141.5C 289.861,1135.53 284.195,1129.53 278.5,1123.5C 280.21,1122.11 281.877,1120.78 283.5,1119.5 Z"/></g>
<g><path style="opacity:0.992" fill="#f6f6f6" d="M 1083.5,1119.5 C 1097.8,1133.97 1111.97,1148.63 1126,1163.5C 1126.68,1164.78 1126.52,1165.95 1125.5,1167C 1123.99,1167.85 1122.49,1168.68 1121,1169.5C 1106.66,1155.49 1092.66,1141.16 1079,1126.5C 1078.33,1125.83 1078.33,1125.17 1079,1124.5C 1080.71,1122.96 1082.21,1121.3 1083.5,1119.5 Z"/></g>
<g><path style="opacity:0.989" fill="#f3f3f3" d="M 318.5,1139.5 C 323.618,1141.66 324.284,1144.49 320.5,1148C 327.422,1146.77 332.255,1149.27 335,1155.5C 335.749,1156.64 335.583,1157.64 334.5,1158.5C 332.833,1159.17 331.167,1159.83 329.5,1160.5C 325.4,1152.97 320.067,1151.81 313.5,1157C 306.667,1163.83 299.833,1170.67 293,1177.5C 291.167,1175.67 289.333,1173.83 287.5,1172C 298.402,1161.6 308.736,1150.77 318.5,1139.5 Z"/></g>
<g><path style="opacity:0.992" fill="#f6f6f6" d="M 1045.5,1154.5 C 1052.03,1153.92 1057.86,1155.59 1063,1159.5C 1063.67,1160.5 1063.67,1161.5 1063,1162.5C 1061.32,1163.52 1059.66,1164.52 1058,1165.5C 1047.39,1160.34 1039.06,1163.01 1033,1173.5C 1030.71,1182.15 1033.88,1185.99 1042.5,1185C 1049.62,1182.28 1056.62,1179.28 1063.5,1176C 1074.06,1173.18 1081.56,1176.68 1086,1186.5C 1087.16,1192.56 1086.16,1198.22 1083,1203.5C 1078.21,1209.96 1072.05,1214.46 1064.5,1217C 1056.99,1218.76 1050.33,1217.26 1044.5,1212.5C 1043.87,1209.38 1045.2,1207.04 1048.5,1205.5C 1056.72,1211.05 1064.72,1210.55 1072.5,1204C 1079.07,1198.43 1080.07,1192.1 1075.5,1185C 1072.63,1183.54 1069.63,1183.21 1066.5,1184C 1057.78,1188.57 1048.62,1191.74 1039,1193.5C 1027.48,1191.84 1022.82,1185.17 1025,1173.5C 1029.49,1164.5 1036.33,1158.17 1045.5,1154.5 Z"/></g>
<g><path style="opacity:0.993" fill="#f4f4f4" d="M 338.5,1157.5 C 341.089,1158.42 343.089,1160.09 344.5,1162.5C 337.667,1170.83 330.833,1179.17 324,1187.5C 322.782,1197.62 327.282,1202.12 337.5,1201C 340.783,1199.44 343.617,1197.27 346,1194.5C 350.456,1188.38 355.289,1182.54 360.5,1177C 362.939,1177.4 364.939,1178.73 366.5,1181C 357.014,1192.49 347.514,1203.99 338,1215.5C 336.075,1214.12 334.241,1212.62 332.5,1211C 333.833,1209.67 335.167,1208.33 336.5,1207C 324.433,1207.76 317.1,1202.26 314.5,1190.5C 314.763,1187.97 315.596,1185.64 317,1183.5C 324.378,1174.96 331.545,1166.29 338.5,1157.5 Z"/></g>
<g><path style="opacity:1" fill="#139143" d="M 601.5,1150.5 C 610.002,1159.44 619.002,1167.94 628.5,1176C 640.928,1183.93 654.261,1189.77 668.5,1193.5C 668.179,1195.05 667.179,1195.71 665.5,1195.5C 641.684,1193.25 620.351,1184.92 601.5,1170.5C 603.467,1170.74 605.301,1170.41 607,1169.5C 607.667,1170.17 608.333,1170.83 609,1171.5C 611.54,1169.98 614.373,1168.98 617.5,1168.5C 615.179,1167.03 613.179,1165.2 611.5,1163C 609.527,1162.5 607.527,1162.34 605.5,1162.5C 605.33,1161.18 605.663,1160.01 606.5,1159C 603.437,1156.97 601.771,1154.14 601.5,1150.5 Z"/></g>
<g><path style="opacity:0.993" fill="#f4f4f4" d="M 373.5,1186.5 C 379.446,1187.52 380.446,1190.02 376.5,1194C 388.193,1192.69 395.86,1197.69 399.5,1209C 398.534,1212.23 397.367,1215.4 396,1218.5C 389.972,1227.23 383.472,1235.57 376.5,1243.5C 374.833,1242.17 373.167,1240.83 371.5,1239.5C 377.667,1230.5 383.833,1221.5 390,1212.5C 391.714,1205.76 389.214,1201.59 382.5,1200C 376.889,1198.91 372.389,1200.74 369,1205.5C 364.167,1212.33 359.333,1219.17 354.5,1226C 351.863,1225.51 349.53,1224.17 347.5,1222C 356.298,1210.23 364.965,1198.39 373.5,1186.5 Z"/></g>
<g><path style="opacity:0.994" fill="#f6f6f6" d="M 1002.5,1186.5 C 1018.23,1185.89 1024.56,1193.22 1021.5,1208.5C 1035.77,1208.27 1042.27,1215.27 1041,1229.5C 1039.01,1234.5 1035.85,1238.66 1031.5,1242C 1023.91,1246.71 1016.41,1251.54 1009,1256.5C 997.703,1239.4 986.536,1222.24 975.5,1205C 975.759,1203.74 976.426,1202.74 977.5,1202C 985.897,1196.81 994.231,1191.64 1002.5,1186.5 Z"/></g>
<g><path style="opacity:1" fill="#080808" d="M 1003.5,1194.5 C 1012.42,1194.26 1016.26,1198.59 1015,1207.5C 1009.46,1213.02 1003.29,1217.68 996.5,1221.5C 992.969,1216.28 989.302,1211.12 985.5,1206C 991.395,1201.89 997.395,1198.06 1003.5,1194.5 Z"/></g>
<g><path style="opacity:1" fill="#de7512" d="M 623.5,1187.5 C 626.926,1188.71 630.259,1190.21 633.5,1192C 652.649,1197.23 671.982,1200.73 691.5,1202.5C 682.809,1202.37 674.142,1202.7 665.5,1203.5C 665.64,1201.88 664.973,1200.71 663.5,1200C 653.214,1197.69 642.881,1196.86 632.5,1197.5C 631.636,1193.06 628.969,1190.4 624.5,1189.5C 623.702,1189.04 623.369,1188.38 623.5,1187.5 Z"/></g>
<g><path style="opacity:1" fill="#1f7440" d="M 784.5,1179.5 C 784.821,1181.05 785.821,1181.71 787.5,1181.5C 761.319,1195.27 733.319,1201.27 703.5,1199.5C 704.833,1198.83 706.167,1198.17 707.5,1197.5C 723.263,1196.51 738.93,1194.67 754.5,1192C 765.369,1189.73 775.369,1185.56 784.5,1179.5 Z"/></g>
<g><path style="opacity:1" fill="#17502e" d="M 668.5,1193.5 C 681.265,1196.86 694.265,1198.19 707.5,1197.5C 706.167,1198.17 704.833,1198.83 703.5,1199.5C 690.588,1199.15 677.921,1197.82 665.5,1195.5C 667.179,1195.71 668.179,1195.05 668.5,1193.5 Z"/></g>
<g><path style="opacity:0.994" fill="#f3f3f3" d="M 416.5,1201.5 C 419.572,1201.18 422.572,1201.52 425.5,1202.5C 423.167,1206.5 420.833,1210.5 418.5,1214.5C 420.5,1216.17 422.5,1217.83 424.5,1219.5C 424.014,1221.5 422.847,1222.83 421,1223.5C 419.263,1222.38 417.429,1221.38 415.5,1220.5C 410.162,1228.51 405.328,1236.84 401,1245.5C 400.013,1249.35 401.513,1251.35 405.5,1251.5C 404.577,1259.39 401.244,1260.55 395.5,1255C 390.63,1250.17 390.463,1245 395,1239.5C 399.5,1231.83 404,1224.17 408.5,1216.5C 404.391,1215.34 403.557,1213.01 406,1209.5C 408.042,1209.88 410.209,1209.88 412.5,1209.5C 414.297,1207.04 415.63,1204.38 416.5,1201.5 Z"/></g>
<g><path style="opacity:0.994" fill="#f6f6f6" d="M 954.5,1214.5 C 971.037,1213.36 977.37,1220.69 973.5,1236.5C 985.315,1237.15 991.648,1243.32 992.5,1255C 991.676,1260.64 989.009,1265.31 984.5,1269C 975.891,1274.22 967.058,1279.05 958,1283.5C 957.228,1283.36 956.561,1283.02 956,1282.5C 946.373,1264.75 936.873,1246.91 927.5,1229C 936.593,1224.12 945.593,1219.29 954.5,1214.5 Z"/></g>
<g><path style="opacity:1" fill="#d97416" d="M 621.5,1209.5 C 626.481,1210.09 631.481,1210.59 636.5,1211C 635.833,1211.33 635.167,1211.67 634.5,1212C 644.402,1213.48 653.736,1216.31 662.5,1220.5C 648.343,1218.21 634.676,1214.55 621.5,1209.5 Z"/></g>
<g><path style="opacity:1" fill="#080808" d="M 1019.5,1215.5 C 1028.83,1215 1033.33,1219.33 1033,1228.5C 1032.12,1231.1 1030.62,1233.27 1028.5,1235C 1023.03,1238.3 1017.7,1241.8 1012.5,1245.5C 1008.27,1240.05 1004.27,1234.38 1000.5,1228.5C 1006.58,1223.75 1012.91,1219.42 1019.5,1215.5 Z"/></g>
<g><path style="opacity:1" fill="#080808" d="M 957.5,1221.5 C 967.857,1223.38 970.523,1228.88 965.5,1238C 959.731,1241.3 953.897,1244.47 948,1247.5C 944.218,1242.78 941.051,1237.61 938.5,1232C 944.606,1227.95 950.939,1224.45 957.5,1221.5 Z"/></g>
<g><path style="opacity:1" fill="#9b5214" d="M 680.5,1223.5 C 683.167,1223.5 685.833,1223.5 688.5,1223.5C 690.833,1224.17 693.167,1224.83 695.5,1225.5C 690.269,1225.56 685.269,1224.89 680.5,1223.5 Z"/></g>
<g><path style="opacity:1" fill="#cc6d16" d="M 770.5,1222.5 C 745.79,1227.78 720.79,1228.78 695.5,1225.5C 693.167,1224.83 690.833,1224.17 688.5,1223.5C 715.883,1225.09 743.216,1224.75 770.5,1222.5 Z"/></g>
<g><path style="opacity:0.993" fill="#f5f5f5" d="M 430.5,1227.5 C 454.072,1227.31 461.906,1238.31 454,1260.5C 453.439,1261.02 452.772,1261.36 452,1261.5C 442.437,1256.63 432.937,1251.63 423.5,1246.5C 420.662,1252.47 420.995,1258.3 424.5,1264C 430.768,1268.68 436.934,1268.51 443,1263.5C 444.667,1264.83 446.333,1266.17 448,1267.5C 448.507,1269 448.007,1270.16 446.5,1271C 435.228,1276.99 425.395,1275.15 417,1265.5C 410.458,1248.92 414.958,1236.25 430.5,1227.5 Z"/></g>
<g><path style="opacity:1" fill="#0f0f0f" d="M 434.5,1233.5 C 447.778,1233.77 452.445,1240.1 448.5,1252.5C 441.167,1248.5 433.833,1244.5 426.5,1240.5C 428.595,1237.4 431.262,1235.06 434.5,1233.5 Z"/></g>
<g><path style="opacity:0.993" fill="#f3f3f3" d="M 469.5,1243.5 C 471.936,1243.32 474.103,1243.98 476,1245.5C 475.667,1247.5 475.333,1249.5 475,1251.5C 481.566,1245.92 487.399,1246.75 492.5,1254C 490.667,1255.83 488.833,1257.67 487,1259.5C 480.863,1253.75 475.53,1254.41 471,1261.5C 467.09,1270.32 462.923,1278.99 458.5,1287.5C 455.867,1286.7 453.867,1285.2 452.5,1283C 458.323,1269.86 463.989,1256.69 469.5,1243.5 Z"/></g>
<g><path style="opacity:1" fill="#060606" d="M 970.5,1244.5 C 980.78,1244.39 984.947,1249.39 983,1259.5C 976.601,1265.29 969.435,1269.95 961.5,1273.5C 957.709,1267.42 954.042,1261.25 950.5,1255C 957.102,1251.2 963.768,1247.7 970.5,1244.5 Z"/></g>
<g><path style="opacity:0.998" fill="#f4f4f4" d="M 495.5,1253.5 C 497.138,1254.16 498.805,1254.83 500.5,1255.5C 501.051,1257.41 501.218,1259.41 501,1261.5C 510.826,1257.55 518.826,1259.89 525,1268.5C 525.667,1272.17 525.667,1275.83 525,1279.5C 521.057,1288.39 517.39,1297.39 514,1306.5C 511.227,1308.8 508.394,1308.63 505.5,1306C 509.463,1296.57 513.296,1287.07 517,1277.5C 518.778,1271.94 516.945,1268.11 511.5,1266C 507.705,1265.16 504.039,1265.5 500.5,1267C 497.707,1270.08 495.54,1273.58 494,1277.5C 491.5,1283.83 489,1290.17 486.5,1296.5C 483.601,1297.6 480.935,1297.1 478.5,1295C 484.311,1281.21 489.978,1267.38 495.5,1253.5 Z"/></g>
<g><path style="opacity:0.997" fill="#f3f3f3" d="M 905.5,1253.5 C 911.905,1252.41 914.238,1255.07 912.5,1261.5C 906.186,1260.99 902.852,1263.82 902.5,1270C 904.882,1280.6 908.549,1290.77 913.5,1300.5C 909.117,1305.09 905.951,1304.42 904,1298.5C 898.593,1286.36 893.759,1274.02 889.5,1261.5C 891.582,1261.53 893.416,1260.86 895,1259.5C 897.27,1267.16 898.604,1267.16 899,1259.5C 901.063,1257.27 903.229,1255.27 905.5,1253.5 Z"/></g>
<g><path style="opacity:0.995" fill="#f3f3f3" d="M 830.5,1260.5 C 832.167,1260.5 833.833,1260.5 835.5,1260.5C 839.676,1280.87 844.009,1301.2 848.5,1321.5C 846.194,1321.99 843.861,1322.33 841.5,1322.5C 841.688,1320.9 841.188,1319.56 840,1318.5C 832.847,1328.71 824.013,1330.21 813.5,1323C 806.252,1314.52 803.419,1304.69 805,1293.5C 810.437,1280.97 819.271,1277.63 831.5,1283.5C 831.833,1283.17 832.167,1282.83 832.5,1282.5C 830.045,1275.68 828.379,1268.68 827.5,1261.5C 828.791,1261.74 829.791,1261.4 830.5,1260.5 Z"/></g>
<g><path style="opacity:0.995" fill="#f1f1f1" d="M 581.5,1263.5 C 584.254,1263.78 586.92,1264.45 589.5,1265.5C 587.466,1272.03 586.633,1278.7 587,1285.5C 596.734,1280.36 605.067,1282.02 612,1290.5C 611.895,1303.58 610.561,1316.58 608,1329.5C 607.692,1330.31 607.192,1330.97 606.5,1331.5C 604.253,1330.63 601.92,1330.29 599.5,1330.5C 602.311,1318.3 603.811,1305.97 604,1293.5C 593.815,1286.28 586.815,1288.62 583,1300.5C 581.503,1308.47 580.17,1316.47 579,1324.5C 576.619,1325.44 574.119,1325.77 571.5,1325.5C 574.399,1304.77 577.732,1284.11 581.5,1263.5 Z"/></g>
<g><path style="opacity:0.02" fill="#d4d4d4" d="M 1153.5,1263.5 C 1153.5,1264.83 1152.83,1265.5 1151.5,1265.5C 1151.83,1264.5 1152.5,1263.83 1153.5,1263.5 Z"/></g>
<g><path style="opacity:1" fill="#888888" d="M 267.5,1265.5 C 269.027,1265.43 270.027,1266.09 270.5,1267.5C 268.973,1267.57 267.973,1266.91 267.5,1265.5 Z"/></g>
<g><path style="opacity:0.989" fill="#f4f4f4" d="M 863.5,1268.5 C 878.022,1266.43 887.355,1272.43 891.5,1286.5C 881.364,1290.45 871.031,1293.95 860.5,1297C 860.043,1297.41 859.709,1297.91 859.5,1298.5C 865.303,1309.7 873.136,1311.37 883,1303.5C 884.341,1300.98 885.174,1298.31 885.5,1295.5C 888.206,1295.42 890.873,1295.09 893.5,1294.5C 892.023,1307.81 884.523,1314.81 871,1315.5C 859.947,1314.45 853.28,1308.45 851,1297.5C 846.558,1283.96 850.725,1274.3 863.5,1268.5 Z"/></g>
<g><path style="opacity:0.997" fill="#f2f2f2" d="M 544.5,1271.5 C 563.074,1270.57 571.574,1279.24 570,1297.5C 569.457,1299.63 568.624,1301.63 567.5,1303.5C 557.214,1300.01 546.881,1296.68 536.5,1293.5C 534.204,1308.04 540.204,1313.87 554.5,1311C 557.448,1306.89 560.948,1306.39 565,1309.5C 563.215,1314.27 559.715,1317.44 554.5,1319C 533.28,1319.45 524.78,1309.28 529,1288.5C 531.962,1280.71 537.129,1275.04 544.5,1271.5 Z"/></g>
<g><path style="opacity:1" fill="#090909" d="M 865.5,1274.5 C 873.871,1273.34 879.204,1276.67 881.5,1284.5C 873.451,1286.29 865.451,1288.29 857.5,1290.5C 856.481,1283.2 859.148,1277.87 865.5,1274.5 Z"/></g>
<g><path style="opacity:1" fill="#0b0b0b" d="M 546.5,1278.5 C 558.188,1277.52 563.521,1282.85 562.5,1294.5C 554.063,1292.8 546.063,1290.13 538.5,1286.5C 540.216,1282.78 542.883,1280.12 546.5,1278.5 Z"/></g>
<g><path style="opacity:1" fill="#050505" d="M 819.5,1286.5 C 827.852,1285.77 833.352,1289.43 836,1297.5C 837.492,1302.41 837.826,1307.41 837,1312.5C 834.426,1319.15 829.593,1321.65 822.5,1320C 817.223,1316.63 814.057,1311.8 813,1305.5C 810.661,1297.4 812.827,1291.07 819.5,1286.5 Z"/></g>
<g><path style="opacity:0.997" fill="#f4f4f4" d="M 680.5,1335.5 C 679.596,1336.21 679.263,1337.21 679.5,1338.5C 677.5,1338.5 675.5,1338.5 673.5,1338.5C 673.5,1335.5 673.5,1332.5 673.5,1329.5C 674.296,1320.18 674.463,1310.84 674,1301.5C 665.471,1296.05 659.471,1298.05 656,1307.5C 654.78,1317.14 653.947,1326.8 653.5,1336.5C 650.833,1336.5 648.167,1336.5 645.5,1336.5C 646.547,1324.49 647.38,1312.49 648,1300.5C 643.922,1296.19 639.088,1295.35 633.5,1298C 631.959,1299.58 630.792,1301.41 630,1303.5C 628.324,1313.76 627.158,1324.09 626.5,1334.5C 623.833,1334.5 621.167,1334.5 618.5,1334.5C 619.958,1319.51 621.291,1304.51 622.5,1289.5C 624.833,1289.5 627.167,1289.5 629.5,1289.5C 629.34,1291.2 629.506,1292.87 630,1294.5C 639.787,1287.24 648.62,1288.24 656.5,1297.5C 662.672,1292.23 669.672,1291.06 677.5,1294C 679.378,1295.54 680.878,1297.38 682,1299.5C 682.213,1311.52 681.713,1323.52 680.5,1335.5 Z"/></g>
<g><path style="opacity:0.997" fill="#f3f3f3" d="M 752.5,1290.5 C 756.514,1290.33 760.514,1290.5 764.5,1291C 769.64,1292.14 772.807,1295.31 774,1300.5C 775.317,1312.16 776.484,1323.83 777.5,1335.5C 774.833,1335.5 772.167,1335.5 769.5,1335.5C 768.667,1325.52 767.834,1315.52 767,1305.5C 766.059,1300.05 762.893,1297.38 757.5,1297.5C 752.04,1297.15 748.207,1299.48 746,1304.5C 746.65,1315.46 747.15,1326.46 747.5,1337.5C 744.881,1337.77 742.381,1337.44 740,1336.5C 739.113,1321.8 737.946,1307.14 736.5,1292.5C 738.833,1292.5 741.167,1292.5 743.5,1292.5C 743.338,1294.53 743.505,1296.53 744,1298.5C 746.157,1295.02 748.99,1292.36 752.5,1290.5 Z"/></g>
<g><path style="opacity:0.995" fill="#f4f4f4" d="M 702.5,1292.5 C 721.3,1290.3 730.633,1298.64 730.5,1317.5C 719.167,1317.5 707.833,1317.5 696.5,1317.5C 697.853,1329.03 704.186,1333.87 715.5,1332C 718.908,1329.63 721.741,1326.8 724,1323.5C 726.135,1324.13 728.302,1324.63 730.5,1325C 725.664,1336.42 716.997,1341.09 704.5,1339C 695.814,1336.31 690.647,1330.48 689,1321.5C 686.801,1308.52 691.301,1298.85 702.5,1292.5 Z"/></g>
<g><path style="opacity:1" fill="#7f7f7f" d="M 305.5,1293.5 C 307.027,1293.43 308.027,1294.09 308.5,1295.5C 306.973,1295.57 305.973,1294.91 305.5,1293.5 Z"/></g>
<g><path style="opacity:1" fill="#080808" d="M 721.5,1307.5 C 721.5,1308.5 721.5,1309.5 721.5,1310.5C 717.958,1310.19 714.625,1310.52 711.5,1311.5C 706.833,1311.5 702.167,1311.5 697.5,1311.5C 699.092,1300.1 705.425,1296.27 716.5,1300C 719.2,1301.86 720.866,1304.36 721.5,1307.5 Z"/></g>
<g><path style="opacity:1" fill="#7f7f7f" d="M 323.5,1305.5 C 325.027,1305.43 326.027,1306.09 326.5,1307.5C 324.973,1307.57 323.973,1306.91 323.5,1305.5 Z"/></g>
<g><path style="opacity:1" fill="#5e5e5e" d="M 721.5,1307.5 C 722.434,1308.57 722.768,1309.9 722.5,1311.5C 718.833,1311.5 715.167,1311.5 711.5,1311.5C 714.625,1310.52 717.958,1310.19 721.5,1310.5C 721.5,1309.5 721.5,1308.5 721.5,1307.5 Z"/></g>
<g><path style="opacity:1" fill="#bbbbbb" d="M 332.5,1311.5 C 334.027,1311.43 335.027,1312.09 335.5,1313.5C 333.973,1313.57 332.973,1312.91 332.5,1311.5 Z"/></g>
<g><path style="opacity:1" fill="#a2a2a2" d="M 673.5,1329.5 C 673.5,1332.5 673.5,1335.5 673.5,1338.5C 675.5,1338.5 677.5,1338.5 679.5,1338.5C 679.263,1337.21 679.596,1336.21 680.5,1335.5C 680.5,1336.83 680.5,1338.17 680.5,1339.5C 677.833,1339.5 675.167,1339.5 672.5,1339.5C 672.187,1335.96 672.521,1332.62 673.5,1329.5 Z"/></g>
<g><path style="opacity:1" fill="#dfdfdf" d="M 945.5,1379.5 C 944.994,1381.11 944.327,1381.44 943.5,1380.5C 943.842,1379.66 944.508,1379.33 945.5,1379.5 Z"/></g>
<g><path style="opacity:1" fill="#666666" d="M 504.5,1389.5 C 507.152,1389.41 509.485,1390.08 511.5,1391.5C 508.848,1391.59 506.515,1390.92 504.5,1389.5 Z"/></g>
<g><path style="opacity:1" fill="#767676" d="M 511.5,1391.5 C 514.916,1391.53 517.916,1392.53 520.5,1394.5C 517.215,1394.07 514.215,1393.07 511.5,1391.5 Z"/></g>
<g><path style="opacity:1" fill="#606060" d="M 522.5,1394.5 C 525.152,1394.41 527.485,1395.08 529.5,1396.5C 526.848,1396.59 524.515,1395.92 522.5,1394.5 Z"/></g>
</svg>
